<?xml version="1.0" encoding="UTF-8" standalone="no"?>
<svg width="639px" height="254px" viewBox="0 0 639 254" version="1.1" xmlns="http://www.w3.org/2000/svg" xmlns:xlink="http://www.w3.org/1999/xlink" xmlns:sketch="http://www.bohemiancoding.com/sketch/ns">
  <!-- Generator: Sketch 3.3.3 (12081) - http://www.bohemiancoding.com/sketch -->
  <title>Dino Block Group Copy</title>
  <desc>Created with Sketch.</desc>
  <defs></defs>
  <g id="WEB-6*" stroke="none" stroke-width="1" fill="none" fill-rule="evenodd" sketch:type="MSPage">
      <g id="HOMEPAGE" sketch:type="MSArtboardGroup" transform="translate(-64.000000, -1121.000000)" fill="#CC5047">
          <g id="Dino-Block-Group-Copy" sketch:type="MSLayerGroup" transform="translate(64.000000, 1121.000000)">
              <g id="Dino-Block" sketch:type="MSShapeGroup">
                  <g id="thinkosaur-logo-copy-15">
                      <path d="M56.1253624,72.9357455 L50.6137813,66.9931429 L40.1958381,73 L56.1227083,72.9826003 L56.1253624,72.9357455 Z" id="Shape-Copy"></path>
                      <path d="M0.9,7.90369841 L0.9,12.2199683 L29.4146779,9.29880953 L16.9482755,0 L0.9,7.90369841 Z" id="Shape-Copy-2" fill-opacity="0.599999964"></path>
                      <path d="M38.2739766,45.277492 L32.4876347,24.4070742 L29.9165894,23.7220651 L29.3789505,9.3 L12.2348932,10.9940635 L6.4,28.3170794 L23.0361711,48.9239365 L38.2739766,45.277492 Z" id="Path-Copy"></path>
                      <path d="M16.4094776,40.7436725 L9.8,32.5 L12.6094466,47.1 L16.4094776,40.7436725 Z" id="Shape-Copy-3" fill-opacity="0.5"></path>
                      <path d="M32.5,24.4 L41.5364314,57.2569524 L56.2315033,73.1014286 L57.6334083,41.8191905 L32.5,24.4 Z" id="Shape-Copy-4" fill-opacity="0.599999964"></path>
                      <path d="M86.7133344,12.1122219 L32.5,24.3645468 L57.5741987,41.7741726 L86.856735,21.1538993 L99.0798849,4.8 L86.7133344,12.1122219 Z" id="Shape-Copy-5"></path>
                  </g>
              </g>
              <g id="Dino-Block-Copy-2" transform="translate(108.000000, 0.000000)" sketch:type="MSShapeGroup">
                  <g id="thinkosaur-logo-copy-15">
                      <path d="M56.1253624,72.9357455 L50.6137813,66.9931429 L40.1958381,73 L56.1227083,72.9826003 L56.1253624,72.9357455 Z" id="Shape-Copy"></path>
                      <path d="M0.9,7.90369841 L0.9,12.2199683 L29.4146779,9.29880953 L16.9482755,0 L0.9,7.90369841 Z" id="Shape-Copy-2" fill-opacity="0.599999964"></path>
                      <path d="M38.2739766,45.277492 L32.4876347,24.4070742 L29.9165894,23.7220651 L29.3789505,9.3 L12.2348932,10.9940635 L6.4,28.3170794 L23.0361711,48.9239365 L38.2739766,45.277492 Z" id="Path-Copy"></path>
                      <path d="M16.4094776,40.7436725 L9.8,32.5 L12.6094466,47.1 L16.4094776,40.7436725 Z" id="Shape-Copy-3" fill-opacity="0.5"></path>
                      <path d="M32.5,24.4 L41.5364314,57.2569524 L56.2315033,73.1014286 L57.6334083,41.8191905 L32.5,24.4 Z" id="Shape-Copy-4" fill-opacity="0.599999964"></path>
                      <path d="M86.7133344,12.1122219 L32.5,24.3645468 L57.5741987,41.7741726 L86.856735,21.1538993 L99.0798849,4.8 L86.7133344,12.1122219 Z" id="Shape-Copy-5"></path>
                  </g>
              </g>
              <g id="Dino-Block-Copy-3" transform="translate(216.000000, 0.000000)" sketch:type="MSShapeGroup">
                  <g id="thinkosaur-logo-copy-15">
                      <path d="M56.1253624,72.9357455 L50.6137813,66.9931429 L40.1958381,73 L56.1227083,72.9826003 L56.1253624,72.9357455 Z" id="Shape-Copy"></path>
                      <path d="M0.9,7.90369841 L0.9,12.2199683 L29.4146779,9.29880953 L16.9482755,0 L0.9,7.90369841 Z" id="Shape-Copy-2" fill-opacity="0.599999964"></path>
                      <path d="M38.2739766,45.277492 L32.4876347,24.4070742 L29.9165894,23.7220651 L29.3789505,9.3 L12.2348932,10.9940635 L6.4,28.3170794 L23.0361711,48.9239365 L38.2739766,45.277492 Z" id="Path-Copy"></path>
                      <path d="M16.4094776,40.7436725 L9.8,32.5 L12.6094466,47.1 L16.4094776,40.7436725 Z" id="Shape-Copy-3" fill-opacity="0.5"></path>
                      <path d="M32.5,24.4 L41.5364314,57.2569524 L56.2315033,73.1014286 L57.6334083,41.8191905 L32.5,24.4 Z" id="Shape-Copy-4" fill-opacity="0.599999964"></path>
                      <path d="M86.7133344,12.1122219 L32.5,24.3645468 L57.5741987,41.7741726 L86.856735,21.1538993 L99.0798849,4.8 L86.7133344,12.1122219 Z" id="Shape-Copy-5"></path>
                  </g>
              </g>
              <g id="Dino-Block-Copy-4" transform="translate(324.000000, 0.000000)" sketch:type="MSShapeGroup">
                  <g id="thinkosaur-logo-copy-15">
                      <path d="M56.1253624,72.9357455 L50.6137813,66.9931429 L40.1958381,73 L56.1227083,72.9826003 L56.1253624,72.9357455 Z" id="Shape-Copy"></path>
                      <path d="M0.9,7.90369841 L0.9,12.2199683 L29.4146779,9.29880953 L16.9482755,0 L0.9,7.90369841 Z" id="Shape-Copy-2" fill-opacity="0.599999964"></path>
                      <path d="M38.2739766,45.277492 L32.4876347,24.4070742 L29.9165894,23.7220651 L29.3789505,9.3 L12.2348932,10.9940635 L6.4,28.3170794 L23.0361711,48.9239365 L38.2739766,45.277492 Z" id="Path-Copy"></path>
                      <path d="M16.4094776,40.7436725 L9.8,32.5 L12.6094466,47.1 L16.4094776,40.7436725 Z" id="Shape-Copy-3" fill-opacity="0.5"></path>
                      <path d="M32.5,24.4 L41.5364314,57.2569524 L56.2315033,73.1014286 L57.6334083,41.8191905 L32.5,24.4 Z" id="Shape-Copy-4" fill-opacity="0.599999964"></path>
                      <path d="M86.7133344,12.1122219 L32.5,24.3645468 L57.5741987,41.7741726 L86.856735,21.1538993 L99.0798849,4.8 L86.7133344,12.1122219 Z" id="Shape-Copy-5"></path>
                  </g>
              </g>
              <g id="Dino-Block-Copy-5" transform="translate(432.000000, 0.000000)" sketch:type="MSShapeGroup">
                  <g id="thinkosaur-logo-copy-15">
                      <path d="M56.1253624,72.9357455 L50.6137813,66.9931429 L40.1958381,73 L56.1227083,72.9826003 L56.1253624,72.9357455 Z" id="Shape-Copy"></path>
                      <path d="M0.9,7.90369841 L0.9,12.2199683 L29.4146779,9.29880953 L16.9482755,0 L0.9,7.90369841 Z" id="Shape-Copy-2" fill-opacity="0.599999964"></path>
                      <path d="M38.2739766,45.277492 L32.4876347,24.4070742 L29.9165894,23.7220651 L29.3789505,9.3 L12.2348932,10.9940635 L6.4,28.3170794 L23.0361711,48.9239365 L38.2739766,45.277492 Z" id="Path-Copy"></path>
                      <path d="M16.4094776,40.7436725 L9.8,32.5 L12.6094466,47.1 L16.4094776,40.7436725 Z" id="Shape-Copy-3" fill-opacity="0.5"></path>
                      <path d="M32.5,24.4 L41.5364314,57.2569524 L56.2315033,73.1014286 L57.6334083,41.8191905 L32.5,24.4 Z" id="Shape-Copy-4" fill-opacity="0.599999964"></path>
                      <path d="M86.7133344,12.1122219 L32.5,24.3645468 L57.5741987,41.7741726 L86.856735,21.1538993 L99.0798849,4.8 L86.7133344,12.1122219 Z" id="Shape-Copy-5"></path>
                  </g>
              </g>
              <g id="Dino-Block-Copy" transform="translate(540.000000, 0.000000)" sketch:type="MSShapeGroup">
                  <g id="thinkosaur-logo-copy-15">
                      <path d="M56.1253624,72.9357455 L50.6137813,66.9931429 L40.1958381,73 L56.1227083,72.9826003 L56.1253624,72.9357455 Z" id="Shape-Copy"></path>
                      <path d="M0.9,7.90369841 L0.9,12.2199683 L29.4146779,9.29880953 L16.9482755,0 L0.9,7.90369841 Z" id="Shape-Copy-2" fill-opacity="0.599999964"></path>
                      <path d="M38.2739766,45.277492 L32.4876347,24.4070742 L29.9165894,23.7220651 L29.3789505,9.3 L12.2348932,10.9940635 L6.4,28.3170794 L23.0361711,48.9239365 L38.2739766,45.277492 Z" id="Path-Copy"></path>
                      <path d="M16.4094776,40.7436725 L9.8,32.5 L12.6094466,47.1 L16.4094776,40.7436725 Z" id="Shape-Copy-3" fill-opacity="0.5"></path>
                      <path d="M32.5,24.4 L41.5364314,57.2569524 L56.2315033,73.1014286 L57.6334083,41.8191905 L32.5,24.4 Z" id="Shape-Copy-4" fill-opacity="0.599999964"></path>
                      <path d="M86.7133344,12.1122219 L32.5,24.3645468 L57.5741987,41.7741726 L86.856735,21.1538993 L99.0798849,4.8 L86.7133344,12.1122219 Z" id="Shape-Copy-5"></path>
                  </g>
              </g>
              <g id="Dino-Block-Copy-11" transform="translate(0.000000, 90.000000)" sketch:type="MSShapeGroup">
                  <g id="thinkosaur-logo-copy-15">
                      <path d="M56.1253624,72.9357455 L50.6137813,66.9931429 L40.1958381,73 L56.1227083,72.9826003 L56.1253624,72.9357455 Z" id="Shape-Copy"></path>
                      <path d="M0.9,7.90369841 L0.9,12.2199683 L29.4146779,9.29880953 L16.9482755,0 L0.9,7.90369841 Z" id="Shape-Copy-2" fill-opacity="0.599999964"></path>
                      <path d="M38.2739766,45.277492 L32.4876347,24.4070742 L29.9165894,23.7220651 L29.3789505,9.3 L12.2348932,10.9940635 L6.4,28.3170794 L23.0361711,48.9239365 L38.2739766,45.277492 Z" id="Path-Copy"></path>
                      <path d="M16.4094776,40.7436725 L9.8,32.5 L12.6094466,47.1 L16.4094776,40.7436725 Z" id="Shape-Copy-3" fill-opacity="0.5"></path>
                      <path d="M32.5,24.4 L41.5364314,57.2569524 L56.2315033,73.1014286 L57.6334083,41.8191905 L32.5,24.4 Z" id="Shape-Copy-4" fill-opacity="0.599999964"></path>
                      <path d="M86.7133344,12.1122219 L32.5,24.3645468 L57.5741987,41.7741726 L86.856735,21.1538993 L99.0798849,4.8 L86.7133344,12.1122219 Z" id="Shape-Copy-5"></path>
                  </g>
              </g>
              <g id="Dino-Block-Copy-10" transform="translate(108.000000, 90.000000)" sketch:type="MSShapeGroup">
                  <g id="thinkosaur-logo-copy-15">
                      <path d="M56.1253624,72.9357455 L50.6137813,66.9931429 L40.1958381,73 L56.1227083,72.9826003 L56.1253624,72.9357455 Z" id="Shape-Copy"></path>
                      <path d="M0.9,7.90369841 L0.9,12.2199683 L29.4146779,9.29880953 L16.9482755,0 L0.9,7.90369841 Z" id="Shape-Copy-2" fill-opacity="0.599999964"></path>
                      <path d="M38.2739766,45.277492 L32.4876347,24.4070742 L29.9165894,23.7220651 L29.3789505,9.3 L12.2348932,10.9940635 L6.4,28.3170794 L23.0361711,48.9239365 L38.2739766,45.277492 Z" id="Path-Copy"></path>
                      <path d="M16.4094776,40.7436725 L9.8,32.5 L12.6094466,47.1 L16.4094776,40.7436725 Z" id="Shape-Copy-3" fill-opacity="0.5"></path>
                      <path d="M32.5,24.4 L41.5364314,57.2569524 L56.2315033,73.1014286 L57.6334083,41.8191905 L32.5,24.4 Z" id="Shape-Copy-4" fill-opacity="0.599999964"></path>
                      <path d="M86.7133344,12.1122219 L32.5,24.3645468 L57.5741987,41.7741726 L86.856735,21.1538993 L99.0798849,4.8 L86.7133344,12.1122219 Z" id="Shape-Copy-5"></path>
                  </g>
              </g>
              <g id="Dino-Block-Copy-9" transform="translate(216.000000, 90.000000)" sketch:type="MSShapeGroup">
                  <g id="thinkosaur-logo-copy-15">
                      <path d="M56.1253624,72.9357455 L50.6137813,66.9931429 L40.1958381,73 L56.1227083,72.9826003 L56.1253624,72.9357455 Z" id="Shape-Copy"></path>
                      <path d="M0.9,7.90369841 L0.9,12.2199683 L29.4146779,9.29880953 L16.9482755,0 L0.9,7.90369841 Z" id="Shape-Copy-2" fill-opacity="0.599999964"></path>
                      <path d="M38.2739766,45.277492 L32.4876347,24.4070742 L29.9165894,23.7220651 L29.3789505,9.3 L12.2348932,10.9940635 L6.4,28.3170794 L23.0361711,48.9239365 L38.2739766,45.277492 Z" id="Path-Copy"></path>
                      <path d="M16.4094776,40.7436725 L9.8,32.5 L12.6094466,47.1 L16.4094776,40.7436725 Z" id="Shape-Copy-3" fill-opacity="0.5"></path>
                      <path d="M32.5,24.4 L41.5364314,57.2569524 L56.2315033,73.1014286 L57.6334083,41.8191905 L32.5,24.4 Z" id="Shape-Copy-4" fill-opacity="0.599999964"></path>
                      <path d="M86.7133344,12.1122219 L32.5,24.3645468 L57.5741987,41.7741726 L86.856735,21.1538993 L99.0798849,4.8 L86.7133344,12.1122219 Z" id="Shape-Copy-5"></path>
                  </g>
              </g>
              <g id="Dino-Block-Copy-8" transform="translate(324.000000, 90.000000)" sketch:type="MSShapeGroup">
                  <g id="thinkosaur-logo-copy-15">
                      <path d="M56.1253624,72.9357455 L50.6137813,66.9931429 L40.1958381,73 L56.1227083,72.9826003 L56.1253624,72.9357455 Z" id="Shape-Copy"></path>
                      <path d="M0.9,7.90369841 L0.9,12.2199683 L29.4146779,9.29880953 L16.9482755,0 L0.9,7.90369841 Z" id="Shape-Copy-2" fill-opacity="0.599999964"></path>
                      <path d="M38.2739766,45.277492 L32.4876347,24.4070742 L29.9165894,23.7220651 L29.3789505,9.3 L12.2348932,10.9940635 L6.4,28.3170794 L23.0361711,48.9239365 L38.2739766,45.277492 Z" id="Path-Copy"></path>
                      <path d="M16.4094776,40.7436725 L9.8,32.5 L12.6094466,47.1 L16.4094776,40.7436725 Z" id="Shape-Copy-3" fill-opacity="0.5"></path>
                      <path d="M32.5,24.4 L41.5364314,57.2569524 L56.2315033,73.1014286 L57.6334083,41.8191905 L32.5,24.4 Z" id="Shape-Copy-4" fill-opacity="0.599999964"></path>
                      <path d="M86.7133344,12.1122219 L32.5,24.3645468 L57.5741987,41.7741726 L86.856735,21.1538993 L99.0798849,4.8 L86.7133344,12.1122219 Z" id="Shape-Copy-5"></path>
                  </g>
              </g>
              <g id="Dino-Block-Copy-7" transform="translate(432.000000, 90.000000)" sketch:type="MSShapeGroup">
                  <g id="thinkosaur-logo-copy-15">
                      <path d="M56.1253624,72.9357455 L50.6137813,66.9931429 L40.1958381,73 L56.1227083,72.9826003 L56.1253624,72.9357455 Z" id="Shape-Copy"></path>
                      <path d="M0.9,7.90369841 L0.9,12.2199683 L29.4146779,9.29880953 L16.9482755,0 L0.9,7.90369841 Z" id="Shape-Copy-2" fill-opacity="0.599999964"></path>
                      <path d="M38.2739766,45.277492 L32.4876347,24.4070742 L29.9165894,23.7220651 L29.3789505,9.3 L12.2348932,10.9940635 L6.4,28.3170794 L23.0361711,48.9239365 L38.2739766,45.277492 Z" id="Path-Copy"></path>
                      <path d="M16.4094776,40.7436725 L9.8,32.5 L12.6094466,47.1 L16.4094776,40.7436725 Z" id="Shape-Copy-3" fill-opacity="0.5"></path>
                      <path d="M32.5,24.4 L41.5364314,57.2569524 L56.2315033,73.1014286 L57.6334083,41.8191905 L32.5,24.4 Z" id="Shape-Copy-4" fill-opacity="0.599999964"></path>
                      <path d="M86.7133344,12.1122219 L32.5,24.3645468 L57.5741987,41.7741726 L86.856735,21.1538993 L99.0798849,4.8 L86.7133344,12.1122219 Z" id="Shape-Copy-5"></path>
                  </g>
              </g>
              <g id="Dino-Block-Copy-6" transform="translate(540.000000, 90.000000)" sketch:type="MSShapeGroup">
                  <g id="thinkosaur-logo-copy-15">
                      <path d="M56.1253624,72.9357455 L50.6137813,66.9931429 L40.1958381,73 L56.1227083,72.9826003 L56.1253624,72.9357455 Z" id="Shape-Copy"></path>
                      <path d="M0.9,7.90369841 L0.9,12.2199683 L29.4146779,9.29880953 L16.9482755,0 L0.9,7.90369841 Z" id="Shape-Copy-2" fill-opacity="0.599999964"></path>
                      <path d="M38.2739766,45.277492 L32.4876347,24.4070742 L29.9165894,23.7220651 L29.3789505,9.3 L12.2348932,10.9940635 L6.4,28.3170794 L23.0361711,48.9239365 L38.2739766,45.277492 Z" id="Path-Copy"></path>
                      <path d="M16.4094776,40.7436725 L9.8,32.5 L12.6094466,47.1 L16.4094776,40.7436725 Z" id="Shape-Copy-3" fill-opacity="0.5"></path>
                      <path d="M32.5,24.4 L41.5364314,57.2569524 L56.2315033,73.1014286 L57.6334083,41.8191905 L32.5,24.4 Z" id="Shape-Copy-4" fill-opacity="0.599999964"></path>
                      <path d="M86.7133344,12.1122219 L32.5,24.3645468 L57.5741987,41.7741726 L86.856735,21.1538993 L99.0798849,4.8 L86.7133344,12.1122219 Z" id="Shape-Copy-5"></path>
                  </g>
              </g>
              <g id="Dino-Block-Copy-17" transform="translate(0.000000, 180.000000)" sketch:type="MSShapeGroup">
                  <g id="thinkosaur-logo-copy-15">
                      <path d="M56.1253624,72.9357455 L50.6137813,66.9931429 L40.1958381,73 L56.1227083,72.9826003 L56.1253624,72.9357455 Z" id="Shape-Copy"></path>
                      <path d="M0.9,7.90369841 L0.9,12.2199683 L29.4146779,9.29880953 L16.9482755,0 L0.9,7.90369841 Z" id="Shape-Copy-2" fill-opacity="0.599999964"></path>
                      <path d="M38.2739766,45.277492 L32.4876347,24.4070742 L29.9165894,23.7220651 L29.3789505,9.3 L12.2348932,10.9940635 L6.4,28.3170794 L23.0361711,48.9239365 L38.2739766,45.277492 Z" id="Path-Copy"></path>
                      <path d="M16.4094776,40.7436725 L9.8,32.5 L12.6094466,47.1 L16.4094776,40.7436725 Z" id="Shape-Copy-3" fill-opacity="0.5"></path>
                      <path d="M32.5,24.4 L41.5364314,57.2569524 L56.2315033,73.1014286 L57.6334083,41.8191905 L32.5,24.4 Z" id="Shape-Copy-4" fill-opacity="0.599999964"></path>
                      <path d="M86.7133344,12.1122219 L32.5,24.3645468 L57.5741987,41.7741726 L86.856735,21.1538993 L99.0798849,4.8 L86.7133344,12.1122219 Z" id="Shape-Copy-5"></path>
                  </g>
              </g>
              <g id="Dino-Block-Copy-16" transform="translate(108.000000, 180.000000)" sketch:type="MSShapeGroup">
                  <g id="thinkosaur-logo-copy-15">
                      <path d="M56.1253624,72.9357455 L50.6137813,66.9931429 L40.1958381,73 L56.1227083,72.9826003 L56.1253624,72.9357455 Z" id="Shape-Copy"></path>
                      <path d="M0.9,7.90369841 L0.9,12.2199683 L29.4146779,9.29880953 L16.9482755,0 L0.9,7.90369841 Z" id="Shape-Copy-2" fill-opacity="0.599999964"></path>
                      <path d="M38.2739766,45.277492 L32.4876347,24.4070742 L29.9165894,23.7220651 L29.3789505,9.3 L12.2348932,10.9940635 L6.4,28.3170794 L23.0361711,48.9239365 L38.2739766,45.277492 Z" id="Path-Copy"></path>
                      <path d="M16.4094776,40.7436725 L9.8,32.5 L12.6094466,47.1 L16.4094776,40.7436725 Z" id="Shape-Copy-3" fill-opacity="0.5"></path>
                      <path d="M32.5,24.4 L41.5364314,57.2569524 L56.2315033,73.1014286 L57.6334083,41.8191905 L32.5,24.4 Z" id="Shape-Copy-4" fill-opacity="0.599999964"></path>
                      <path d="M86.7133344,12.1122219 L32.5,24.3645468 L57.5741987,41.7741726 L86.856735,21.1538993 L99.0798849,4.8 L86.7133344,12.1122219 Z" id="Shape-Copy-5"></path>
                  </g>
              </g>
              <g id="Dino-Block-Copy-15" transform="translate(216.000000, 180.000000)" sketch:type="MSShapeGroup">
                  <g id="thinkosaur-logo-copy-15">
                      <path d="M56.1253624,72.9357455 L50.6137813,66.9931429 L40.1958381,73 L56.1227083,72.9826003 L56.1253624,72.9357455 Z" id="Shape-Copy"></path>
                      <path d="M0.9,7.90369841 L0.9,12.2199683 L29.4146779,9.29880953 L16.9482755,0 L0.9,7.90369841 Z" id="Shape-Copy-2" fill-opacity="0.599999964"></path>
                      <path d="M38.2739766,45.277492 L32.4876347,24.4070742 L29.9165894,23.7220651 L29.3789505,9.3 L12.2348932,10.9940635 L6.4,28.3170794 L23.0361711,48.9239365 L38.2739766,45.277492 Z" id="Path-Copy"></path>
                      <path d="M16.4094776,40.7436725 L9.8,32.5 L12.6094466,47.1 L16.4094776,40.7436725 Z" id="Shape-Copy-3" fill-opacity="0.5"></path>
                      <path d="M32.5,24.4 L41.5364314,57.2569524 L56.2315033,73.1014286 L57.6334083,41.8191905 L32.5,24.4 Z" id="Shape-Copy-4" fill-opacity="0.599999964"></path>
                      <path d="M86.7133344,12.1122219 L32.5,24.3645468 L57.5741987,41.7741726 L86.856735,21.1538993 L99.0798849,4.8 L86.7133344,12.1122219 Z" id="Shape-Copy-5"></path>
                  </g>
              </g>
              <g id="Dino-Block-Copy-14" transform="translate(324.000000, 180.000000)" sketch:type="MSShapeGroup">
                  <g id="thinkosaur-logo-copy-15">
                      <path d="M56.1253624,72.9357455 L50.6137813,66.9931429 L40.1958381,73 L56.1227083,72.9826003 L56.1253624,72.9357455 Z" id="Shape-Copy"></path>
                      <path d="M0.9,7.90369841 L0.9,12.2199683 L29.4146779,9.29880953 L16.9482755,0 L0.9,7.90369841 Z" id="Shape-Copy-2" fill-opacity="0.599999964"></path>
                      <path d="M38.2739766,45.277492 L32.4876347,24.4070742 L29.9165894,23.7220651 L29.3789505,9.3 L12.2348932,10.9940635 L6.4,28.3170794 L23.0361711,48.9239365 L38.2739766,45.277492 Z" id="Path-Copy"></path>
                      <path d="M16.4094776,40.7436725 L9.8,32.5 L12.6094466,47.1 L16.4094776,40.7436725 Z" id="Shape-Copy-3" fill-opacity="0.5"></path>
                      <path d="M32.5,24.4 L41.5364314,57.2569524 L56.2315033,73.1014286 L57.6334083,41.8191905 L32.5,24.4 Z" id="Shape-Copy-4" fill-opacity="0.599999964"></path>
                      <path d="M86.7133344,12.1122219 L32.5,24.3645468 L57.5741987,41.7741726 L86.856735,21.1538993 L99.0798849,4.8 L86.7133344,12.1122219 Z" id="Shape-Copy-5"></path>
                  </g>
              </g>
              <g id="Dino-Block-Copy-13" transform="translate(432.000000, 180.000000)" sketch:type="MSShapeGroup">
                  <g id="thinkosaur-logo-copy-15">
                      <path d="M56.1253624,72.9357455 L50.6137813,66.9931429 L40.1958381,73 L56.1227083,72.9826003 L56.1253624,72.9357455 Z" id="Shape-Copy"></path>
                      <path d="M0.9,7.90369841 L0.9,12.2199683 L29.4146779,9.29880953 L16.9482755,0 L0.9,7.90369841 Z" id="Shape-Copy-2" fill-opacity="0.599999964"></path>
                      <path d="M38.2739766,45.277492 L32.4876347,24.4070742 L29.9165894,23.7220651 L29.3789505,9.3 L12.2348932,10.9940635 L6.4,28.3170794 L23.0361711,48.9239365 L38.2739766,45.277492 Z" id="Path-Copy"></path>
                      <path d="M16.4094776,40.7436725 L9.8,32.5 L12.6094466,47.1 L16.4094776,40.7436725 Z" id="Shape-Copy-3" fill-opacity="0.5"></path>
                      <path d="M32.5,24.4 L41.5364314,57.2569524 L56.2315033,73.1014286 L57.6334083,41.8191905 L32.5,24.4 Z" id="Shape-Copy-4" fill-opacity="0.599999964"></path>
                      <path d="M86.7133344,12.1122219 L32.5,24.3645468 L57.5741987,41.7741726 L86.856735,21.1538993 L99.0798849,4.8 L86.7133344,12.1122219 Z" id="Shape-Copy-5"></path>
                  </g>
              </g>
              <g id="Dino-Block-Copy-12" transform="translate(540.000000, 180.000000)" sketch:type="MSShapeGroup">
                  <g id="thinkosaur-logo-copy-15">
                      <path d="M56.1253624,72.9357455 L50.6137813,66.9931429 L40.1958381,73 L56.1227083,72.9826003 L56.1253624,72.9357455 Z" id="Shape-Copy"></path>
                      <path d="M0.9,7.90369841 L0.9,12.2199683 L29.4146779,9.29880953 L16.9482755,0 L0.9,7.90369841 Z" id="Shape-Copy-2" fill-opacity="0.599999964"></path>
                      <path d="M38.2739766,45.277492 L32.4876347,24.4070742 L29.9165894,23.7220651 L29.3789505,9.3 L12.2348932,10.9940635 L6.4,28.3170794 L23.0361711,48.9239365 L38.2739766,45.277492 Z" id="Path-Copy"></path>
                      <path d="M16.4094776,40.7436725 L9.8,32.5 L12.6094466,47.1 L16.4094776,40.7436725 Z" id="Shape-Copy-3" fill-opacity="0.5"></path>
                      <path d="M32.5,24.4 L41.5364314,57.2569524 L56.2315033,73.1014286 L57.6334083,41.8191905 L32.5,24.4 Z" id="Shape-Copy-4" fill-opacity="0.599999964"></path>
                      <path d="M86.7133344,12.1122219 L32.5,24.3645468 L57.5741987,41.7741726 L86.856735,21.1538993 L99.0798849,4.8 L86.7133344,12.1122219 Z" id="Shape-Copy-5"></path>
                  </g>
              </g>
          </g>
      </g>
  </g>
</svg>
