<?xml version="1.0" encoding="UTF-8" standalone="no"?>
<svg width="72px" height="72px" viewBox="0 0 72 72" version="1.1" xmlns="http://www.w3.org/2000/svg" xmlns:xlink="http://www.w3.org/1999/xlink" xmlns:sketch="http://www.bohemiancoding.com/sketch/ns">
    <!-- Generator: Sketch 3.3.3 (12081) - http://www.bohemiancoding.com/sketch -->
    <title>Rectangle 16 Copy 2</title>
    <desc>Created with Sketch.</desc>
    <defs></defs>
    <g id="WEB-6*" stroke="none" stroke-width="1" fill="none" fill-rule="evenodd" sketch:type="MSPage">
        <g id="HOMEPAGE" sketch:type="MSArtboardGroup" transform="translate(-401.000000, -1562.000000)" fill="#C24E47" opacity="0.927238806">
            <g id="highlights-feature" sketch:type="MSLayerGroup" transform="translate(67.000000, 1435.000000)">
                <g id="Rectangle-16-Copy-2-+-Topics-range-from-We-+-Latest-Tool-Coverage" transform="translate(334.000000, 122.000000)" sketch:type="MSShapeGroup">
                    <path d="M34.1779955,39.1975015 L28.4183649,33.506438 C26.8413232,31.7922622 26.429921,31.1065919 26.8413232,29.118148 C27.5955605,25.8269305 26.1556529,22.467146 23.2758376,20.7529702 C18.6132795,18.078856 14.6363917,20.6158362 14.6363917,20.6158362 L14.2249895,21.1649039 L18.5447125,23.9075852 C18.5447125,23.9075852 21.1502596,25.4160598 18.8189806,29.1186795 C16.7619697,32.2727629 14.0878554,30.6271542 14.0878554,30.6271542 L9.7681325,27.8159059 L9.42529734,28.3644422 C9.42529734,28.3644422 9.21959625,33.5755365 13.4021851,36.2496507 C15.390629,37.5524243 17.516207,37.5524243 19.0246817,37.0038881 C20.5331563,36.5239188 21.6302288,37.0724551 23.5501057,38.8551979 L29.2411693,44.2714618 L17.3790729,55.3107538 C16.3505675,56.3397908 16.3505675,58.053435 17.44764,59.082472 L20.0531871,61.7565862 C21.0131256,62.8531272 22.7958684,62.7850917 23.7558068,61.7565862 L34.0408614,49.3454221 L45.0121179,61.0709159 C46.7943292,62.7850917 51.3197532,61.0709159 51.3197532,61.0709159 C51.3197532,61.0709159 53.1030276,56.5454919 51.3888518,54.8313161 L39.2519558,43.9971937 L48.4404694,34.8092115 C49.4004079,33.9178401 51.3888518,33.9864072 53.1030276,35.7005829 C53.9253004,36.5239188 54.3372341,37.4152902 54.2001,37.8952595 C53.3767641,38.7180638 53.3767641,40.0208374 54.2001,40.8436418 L54.9543374,41.5978791 C55.7771418,42.4206835 57.0113483,42.3521165 57.8341527,41.5293121 L61.9481745,37.4152902 C62.7024119,36.6610529 62.8395459,35.4268464 62.0167416,34.604042 L61.2625042,33.8498046 C60.5082669,33.0955673 59.1369263,32.9584332 58.3135904,33.7812376 C57.7655857,33.7126706 57.0799153,33.506438 56.5313791,32.8893347 C55.2286055,31.5179941 56.1885439,28.9124469 55.2971725,27.9525085 L51.6631199,24.3184558 C49.9489441,22.6728471 45.217819,17.1874846 32.6695208,20.4787021 L32.7380878,22.1243108 C32.7380878,22.1243108 38.9096522,21.9871768 43.2979421,26.3754667 C43.2979421,26.3754667 42.6922593,30.4842494 42.2845569,30.8961668 L34.1779955,39.1975015 Z M7.48462531,5 L64.5153747,5 C68.6490191,5 72,8.35218535 72,12.4846253 L72,69.5153747 C72,73.6490191 68.6478147,77 64.5153747,77 L7.48462531,77 C3.35098089,77 0,73.6478147 0,69.5153747 L0,12.4846253 C0,8.35098089 3.35218535,5 7.48462531,5 Z" id="Rectangle-16-Copy-2"></path>
                </g>
            </g>
        </g>
    </g>
</svg>
