<?xml version="1.0" encoding="UTF-8" standalone="no"?>
<svg width="72px" height="72px" viewBox="0 0 72 72" version="1.1" xmlns="http://www.w3.org/2000/svg" xmlns:xlink="http://www.w3.org/1999/xlink" xmlns:sketch="http://www.bohemiancoding.com/sketch/ns">
    <!-- Generator: Sketch 3.3.3 (12081) - http://www.bohemiancoding.com/sketch -->
    <title>Rectangle 16 Copy</title>
    <desc>Created with Sketch.</desc>
    <defs></defs>
    <g id="WEB-6*" stroke="none" stroke-width="1" fill="none" fill-rule="evenodd" sketch:type="MSPage">
        <g id="HOMEPAGE" sketch:type="MSArtboardGroup" transform="translate(-67.000000, -1441.000000)" fill="#C24E47" opacity="0.927238806">
            <g id="highlights-feature" sketch:type="MSLayerGroup" transform="translate(67.000000, 1435.000000)">
                <g id="Shows-from-a-variety-+-Rectangle-16-+-Diverse-Variety" sketch:type="MSShapeGroup">
                    <path d="M0,13.4340792 C0,9.32835062 3.32830851,6 7.43407917,6 L64.5659208,6 C68.6716494,6 72,9.32830851 72,13.4340792 L72,70.5659208 C72,74.6716494 68.6716915,78 64.5659208,78 L7.43407917,78 C3.32835062,78 0,74.6716915 0,70.5659208 L0,13.4340792 Z M14.6862915,26 L26,14.6862915 L37.3137085,26 L26,37.3137085 L14.6862915,26 Z M15,38 L40,63 L15,63 L15,38 Z M49,58 C56.7319865,58 63,51.7319865 63,44 C63,36.2680135 56.7319865,30 49,30 C41.2680135,30 35,36.2680135 35,44 C35,51.7319865 41.2680135,58 49,58 Z" id="Rectangle-16-Copy"></path>
                </g>
            </g>
        </g>
    </g>
</svg>
