<?xml version="1.0" encoding="UTF-8" standalone="no"?>
<svg width="72px" height="72px" viewBox="0 0 72 72" version="1.1" xmlns="http://www.w3.org/2000/svg" xmlns:xlink="http://www.w3.org/1999/xlink" xmlns:sketch="http://www.bohemiancoding.com/sketch/ns">
    <!-- Generator: Sketch 3.3.3 (12081) - http://www.bohemiancoding.com/sketch -->
    <title>Rectangle 16 Copy 3</title>
    <desc>Created with Sketch.</desc>
    <defs></defs>
    <g id="WEB-6*" stroke="none" stroke-width="1" fill="none" fill-rule="evenodd" sketch:type="MSPage">
        <g id="HOMEPAGE" sketch:type="MSArtboardGroup" transform="translate(-401.000000, -1681.000000)" fill="#C24E47" opacity="0.927238806">
            <g id="highlights-feature" sketch:type="MSLayerGroup" transform="translate(67.000000, 1435.000000)">
                <g id="Rectangle-16-Copy-3-+-Watch-on-a-tablet-an-+-Multi-tasking-Ready" transform="translate(334.000000, 240.000000)" sketch:type="MSShapeGroup">
                    <path d="M0,13.4846253 C0,9.35098089 3.35218535,6 7.48462531,6 L64.5153747,6 C68.6490191,6 72,9.35218535 72,13.4846253 L72,70.5153747 C72,74.6490191 68.6478147,78 64.5153747,78 L7.48462531,78 C3.35098089,78 0,74.6478147 0,70.5153747 L0,13.4846253 Z M8.88311688,23.2889754 C8.88311688,21.7450806 10.1394171,20.4935065 11.6936752,20.4935065 L60.1145166,20.4935065 C61.6667451,20.4935065 62.9250749,21.7463256 62.9250749,23.2889754 L62.9250749,54.093642 C62.9250749,55.6375368 61.6687747,56.8891109 60.1145166,56.8891109 L11.6936752,56.8891109 C10.1414467,56.8891109 8.88311688,55.6362918 8.88311688,54.093642 L8.88311688,23.2889754 Z M26.5294705,61.3006993 C26.5294705,60.0824728 27.5139416,59.0949051 28.7298487,59.0949051 L44.1812402,59.0949051 C45.3964755,59.0949051 46.3816184,60.0739795 46.3816184,61.3006993 C46.3816184,62.5189258 45.3971473,63.5064935 44.1812402,63.5064935 L28.7298487,63.5064935 C27.5146134,63.5064935 26.5294705,62.5274191 26.5294705,61.3006993 Z M12.3452547,25.6334943 C12.3452547,24.6022348 13.1738279,23.7662338 14.2110599,23.7662338 L35.6259743,23.7662338 L35.6259743,53.6163833 L14.2110599,53.6163836 C13.1806042,53.6163836 12.3452547,52.786865 12.3452547,51.7491231 L12.3452547,25.6334943 Z" id="Rectangle-16-Copy-3"></path>
                </g>
            </g>
        </g>
    </g>
</svg>
