<?xml version="1.0" encoding="UTF-8" standalone="no"?>
<svg width="158px" height="36px" viewBox="0 0 158 36" version="1.1" xmlns="http://www.w3.org/2000/svg" xmlns:xlink="http://www.w3.org/1999/xlink" xmlns:sketch="http://www.bohemiancoding.com/sketch/ns">
    <!-- Generator: Sketch 3.4.4 (17249) - http://www.bohemiancoding.com/sketch -->
    <title>Group Copy</title>
    <desc>Created with Sketch.</desc>
    <defs></defs>
    <g id="WEB-8-*" stroke="none" stroke-width="1" fill="none" fill-rule="evenodd" sketch:type="MSPage">
        <g id="Sample-Copy-2" sketch:type="MSArtboardGroup" transform="translate(-305.000000, -990.000000)" fill="#CC5047">
            <g id="Group-Copy" sketch:type="MSLayerGroup" transform="translate(305.000000, 990.000000)">
                <g id="Dino-Block-Copy-13" sketch:type="MSShapeGroup">
                    <g id="thinkosaur-logo-copy-15">
                        <path d="M27.2398474,35.4067604 L24.5648602,32.5219156 L19.5086223,35.4379528 L27.2385593,35.4295061 L27.2398474,35.4067604 Z" id="Shape-Copy"></path>
                        <path d="M0.436805424,3.83686153 L0.436805424,5.93220081 L14.2761009,4.51412019 L8.22566515,0 L0.436805424,3.83686153 Z" id="Shape-Copy-2" fill-opacity="0.599999964"></path>
                        <path d="M18.5758673,21.9800223 L15.7675278,11.8484485 L14.5196983,11.5159099 L14.258761,4.5146981 L5.93807524,5.33708361 L3.1061719,13.7465661 L11.1803605,23.7501939 L18.5758673,21.9800223 Z" id="Path-Copy"></path>
                        <path d="M7.96416535,19.7790732 L4.75632572,15.7771708 L6.11986075,22.8647614 L7.96416535,19.7790732 Z" id="Shape-Copy-3" fill-opacity="0.5"></path>
                        <path d="M15.7735292,11.8450144 L20.159265,27.7954682 L27.2913618,35.4871915 L27.9717615,20.3011849 L15.7735292,11.8450144 Z" id="Shape-Copy-4" fill-opacity="0.599999964"></path>
                        <path d="M42.0853942,5.8798952 L15.7735292,11.8278036 L27.9430247,20.2793309 L42.1549921,10.2691902 L48.0873679,2.33016676 L42.0853942,5.8798952 Z" id="Shape-Copy-5"></path>
                    </g>
                </g>
                <g id="Dino-Block-Copy-15" transform="translate(54.721951, 0.000000)" sketch:type="MSShapeGroup">
                    <g id="thinkosaur-logo-copy-15">
                        <path d="M27.2398474,35.4067604 L24.5648602,32.5219156 L19.5086223,35.4379528 L27.2385593,35.4295061 L27.2398474,35.4067604 Z" id="Shape-Copy"></path>
                        <path d="M0.436805424,3.83686153 L0.436805424,5.93220081 L14.2761009,4.51412019 L8.22566515,0 L0.436805424,3.83686153 Z" id="Shape-Copy-2" fill-opacity="0.599999964"></path>
                        <path d="M18.5758673,21.9800223 L15.7675278,11.8484485 L14.5196983,11.5159099 L14.258761,4.5146981 L5.93807524,5.33708361 L3.1061719,13.7465661 L11.1803605,23.7501939 L18.5758673,21.9800223 Z" id="Path-Copy"></path>
                        <path d="M7.96416535,19.7790732 L4.75632572,15.7771708 L6.11986075,22.8647614 L7.96416535,19.7790732 Z" id="Shape-Copy-3" fill-opacity="0.5"></path>
                        <path d="M15.7735292,11.8450144 L20.159265,27.7954682 L27.2913618,35.4871915 L27.9717615,20.3011849 L15.7735292,11.8450144 Z" id="Shape-Copy-4" fill-opacity="0.599999964"></path>
                        <path d="M42.0853942,5.8798952 L15.7735292,11.8278036 L27.9430247,20.2793309 L42.1549921,10.2691902 L48.0873679,2.33016676 L42.0853942,5.8798952 Z" id="Shape-Copy-5"></path>
                    </g>
                </g>
                <g id="Dino-Block-Copy-11" transform="translate(109.443902, 0.000000)" sketch:type="MSShapeGroup">
                    <g id="thinkosaur-logo-copy-15">
                        <path d="M27.2398474,35.4067604 L24.5648602,32.5219156 L19.5086223,35.4379528 L27.2385593,35.4295061 L27.2398474,35.4067604 Z" id="Shape-Copy"></path>
                        <path d="M0.436805424,3.83686153 L0.436805424,5.93220081 L14.2761009,4.51412019 L8.22566515,0 L0.436805424,3.83686153 Z" id="Shape-Copy-2" fill-opacity="0.599999964"></path>
                        <path d="M18.5758673,21.9800223 L15.7675278,11.8484485 L14.5196983,11.5159099 L14.258761,4.5146981 L5.93807524,5.33708361 L3.1061719,13.7465661 L11.1803605,23.7501939 L18.5758673,21.9800223 Z" id="Path-Copy"></path>
                        <path d="M7.96416535,19.7790732 L4.75632572,15.7771708 L6.11986075,22.8647614 L7.96416535,19.7790732 Z" id="Shape-Copy-3" fill-opacity="0.5"></path>
                        <path d="M15.7735292,11.8450144 L20.159265,27.7954682 L27.2913618,35.4871915 L27.9717615,20.3011849 L15.7735292,11.8450144 Z" id="Shape-Copy-4" fill-opacity="0.599999964"></path>
                        <path d="M42.0853942,5.8798952 L15.7735292,11.8278036 L27.9430247,20.2793309 L42.1549921,10.2691902 L48.0873679,2.33016676 L42.0853942,5.8798952 Z" id="Shape-Copy-5"></path>
                    </g>
                </g>
            </g>
        </g>
    </g>
</svg>