<?xml version="1.0" encoding="UTF-8" standalone="no"?>
<svg width="72px" height="73px" viewBox="0 0 72 73" version="1.1" xmlns="http://www.w3.org/2000/svg" xmlns:xlink="http://www.w3.org/1999/xlink" xmlns:sketch="http://www.bohemiancoding.com/sketch/ns">
    <!-- Generator: Sketch 3.4.4 (17249) - http://www.bohemiancoding.com/sketch -->
    <title>delightful</title>
    <desc>Created with Sketch.</desc>
    <defs>
        <path d="M0,7.00871658 C0,3.69019405 2.69107868,1 5.99943435,1 L66.0005656,1 C69.3139617,1 72,3.69429437 72,7.00871658 L72,67.6612816 C72,70.9798041 69.3089213,73.6699982 66.0005656,73.6699982 L5.99943435,73.6699982 C2.68603825,73.6699982 0,70.9757038 0,67.6612816 L0,7.00871658 Z M36,64 C50.9116883,64 63,51.9116883 63,37 C63,22.0883117 50.9116883,10 36,10 C21.0883117,10 9,22.0883117 9,37 C9,51.9116883 21.0883117,64 36,64 Z M25.875,37 C27.7389611,37 29.25,35.4889611 29.25,33.625 C29.25,31.7610389 27.7389611,30.25 25.875,30.25 C24.0110389,30.25 22.5,31.7610389 22.5,33.625 C22.5,35.4889611 24.0110389,37 25.875,37 Z M46.125,37 C47.9889611,37 49.5,35.4889611 49.5,33.625 C49.5,31.7610389 47.9889611,30.25 46.125,30.25 C44.2610389,30.25 42.75,31.7610389 42.75,33.625 C42.75,35.4889611 44.2610389,37 46.125,37 Z M49.5,43.75 C49.5,51.2058441 43.4558441,57.25 36,57.25 C28.5441559,57.25 22.5,51.2058441 22.5,43.75 L49.5,43.75 Z" id="path-1"></path>
    </defs>
    <g id="WEB-11*" stroke="none" stroke-width="1" fill="none" fill-rule="evenodd" sketch:type="MSPage">
        <g id="Sample-Copy-2" sketch:type="MSArtboardGroup" transform="translate(-79.000000, -2610.000000)">
            <g id="Podcasts,-books,-gui-+-Loaded-+-Rectangle-63-Copy-5" sketch:type="MSLayerGroup" transform="translate(79.000000, 2609.000000)">
                <g id="delightful">
                    <use fill="none" sketch:type="MSShapeGroup" xlink:href="#path-1"></use>
                    <use fill="#E1655E" fill-rule="evenodd" xlink:href="#path-1"></use>
                    <use fill-opacity="0.0399999991" fill="none" fill-rule="evenodd" xlink:href="#path-1"></use>
                </g>
            </g>
        </g>
    </g>
</svg>