<?xml version="1.0" encoding="UTF-8" standalone="no"?>
<svg width="72px" height="73px" viewBox="0 0 72 73" version="1.1" xmlns="http://www.w3.org/2000/svg" xmlns:xlink="http://www.w3.org/1999/xlink" xmlns:sketch="http://www.bohemiancoding.com/sketch/ns">
    <!-- Generator: Sketch 3.4.4 (17249) - http://www.bohemiancoding.com/sketch -->
    <title>Rectangle 63 Copy 5</title>
    <desc>Created with Sketch.</desc>
    <defs>
        <path d="M0,8.00871658 C0,4.69019405 2.69107868,2 5.99943435,2 L66.0005656,2 C69.3139617,2 72,4.69429437 72,8.00871658 L72,68.6612816 C72,71.9798041 69.3089213,74.6699982 66.0005656,74.6699982 L5.99943435,74.6699982 C2.68603825,74.6699982 0,71.9757038 0,68.6612816 L0,8.00871658 Z M49.8024492,43.4297139 L49.8024492,27.744096 L50.8754742,27.744096 C51.4965326,27.744096 52,27.2380934 52,26.6118194 L52,13.1322766 C52,12.5069375 51.4951117,12 50.8665065,12 L28.9604512,12 C28.33444,12 27.8269577,12.5060026 27.8269577,13.1322766 L27.8269577,26.6118194 C27.8269577,27.2371585 28.3366433,27.744096 28.9514829,27.744096 L30.0245072,27.744096 L30.0245072,42.9461452 L21.4496706,46.3176309 C18.9576499,47.2825191 16.9820533,49.1875547 15.8854763,51.6886168 C14.7910968,54.1806822 14.7075899,56.9628889 15.6547336,59.5134325 C16.5711116,61.9897538 18.4434234,64.0274897 20.7904059,65.1138323 C22.0671819,65.7008622 23.4252673,66 24.8229085,66 C26.009585,66 27.174286,65.7818318 28.2840483,65.3544921 L39.3509057,61.058603 C38.5136394,56.245408 39.7376743,52.6332625 41.1397106,50.2783956 C43.058171,47.0531051 46.211654,44.6105211 49.8024492,43.4297139 Z M48.1542874,14.2491566 C48.7611238,14.2491566 49.2530619,14.7323738 49.2530619,15.3479254 L49.2530619,24.3961706 C49.2530619,25.0030039 48.7653546,25.4949394 48.1542874,25.4949394 C47.547451,25.4949394 47.0555128,25.0117222 47.0555128,24.3961706 L47.0555128,15.3479254 C47.0555128,14.7410921 47.5432202,14.2491566 48.1542874,14.2491566 Z M31.6726691,25.4949394 C31.0658326,25.4949394 30.5738945,25.0117222 30.5738945,24.3961706 L30.5738945,15.3479254 C30.5738945,14.7410921 31.0616019,14.2491566 31.6726691,14.2491566 C32.2795055,14.2491566 32.7714436,14.7323738 32.7714436,15.3479254 L32.7714436,24.3961706 C32.7714436,25.0030039 32.2837362,25.4949394 31.6726691,25.4949394 Z M37.1665418,25.4949394 C36.5597054,25.4949394 36.0677673,25.0117222 36.0677673,24.3961706 L36.0677673,15.3479254 C36.0677673,14.7410921 36.5554747,14.2491566 37.1665418,14.2491566 C37.7733783,14.2491566 38.2653164,14.7323738 38.2653164,15.3479254 L38.2653164,24.3961706 C38.2653164,25.0030039 37.777609,25.4949394 37.1665418,25.4949394 Z M42.6604146,14.2491566 C43.267251,14.2491566 43.7591892,14.7323738 43.7591892,15.3479254 L43.7591892,24.3961706 C43.7591892,25.0030039 43.2714818,25.4949394 42.6604146,25.4949394 C42.0535782,25.4949394 41.5616401,25.0117222 41.5616401,24.3961706 L41.5616401,15.3479254 C41.5616401,14.7410921 42.0493474,14.2491566 42.6604146,14.2491566 Z M43.0164176,51.447957 C41.4891209,54.0209921 40.9814871,57.0123704 41.4583552,60.2421592 L46.1413324,58.4248407 C49.8068443,56.4298388 49.8068443,53.5104336 49.8068443,50.4223416 L49.8068443,45.8228164 C46.9917839,46.9091591 44.5371216,48.8861677 43.0164176,51.447957 Z" id="path-1"></path>
    </defs>
    <g id="WEB-11*" stroke="none" stroke-width="1" fill="none" fill-rule="evenodd" sketch:type="MSPage">
        <g id="Sample-Copy-2" sketch:type="MSArtboardGroup" transform="translate(-78.000000, -2611.000000)">
            <g id="Podcasts,-books,-gui-+-Loaded-+-Rectangle-63-Copy-5" sketch:type="MSLayerGroup" transform="translate(78.000000, 2609.000000)">
                <g id="Rectangle-63-Copy-5">
                    <use fill="none" sketch:type="MSShapeGroup" xlink:href="#path-1"></use>
                    <use fill="#E1655E" fill-rule="evenodd" xlink:href="#path-1"></use>
                    <use fill-opacity="0.0399999991" fill="none" fill-rule="evenodd" xlink:href="#path-1"></use>
                </g>
            </g>
        </g>
    </g>
</svg>