<?xml version="1.0" encoding="UTF-8" standalone="no"?>
<svg width="72px" height="72px" viewBox="0 0 72 72" version="1.1" xmlns="http://www.w3.org/2000/svg" xmlns:xlink="http://www.w3.org/1999/xlink" xmlns:sketch="http://www.bohemiancoding.com/sketch/ns">
    <!-- Generator: Sketch 3.4.4 (17249) - http://www.bohemiancoding.com/sketch -->
    <title>Rectangle 16 Copy 3</title>
    <desc>Created with Sketch.</desc>
    <defs></defs>
    <g id="WEB-8-*" stroke="none" stroke-width="1" fill="none" fill-rule="evenodd" sketch:type="MSPage">
        <g id="Sample-Copy-2" sketch:type="MSArtboardGroup" transform="translate(-401.000000, -1306.000000)" fill="#C24E47" opacity="0.927238806">
            <g id="highlights-feature" sketch:type="MSLayerGroup" transform="translate(67.000000, 1102.000000)">
                <g id="Rectangle-16-Copy-3-+-Watch-on-a-tablet-an-+-Multi-tasking-Ready" transform="translate(334.000000, 202.000000)" sketch:type="MSShapeGroup">
                    <path d="M0,9.48462531 C0,5.35098089 3.35218535,2 7.48462531,2 L64.5153747,2 C68.6490191,2 72,5.35218535 72,9.48462531 L72,66.5153747 C72,70.6490191 68.6478147,74 64.5153747,74 L7.48462531,74 C3.35098089,74 0,70.6478147 0,66.5153747 L0,9.48462531 Z M8.88311688,19.2889754 C8.88311688,17.7450806 10.1394171,16.4935065 11.6936752,16.4935065 L60.1145166,16.4935065 C61.6667451,16.4935065 62.9250749,17.7463256 62.9250749,19.2889754 L62.9250749,50.093642 C62.9250749,51.6375368 61.6687747,52.8891109 60.1145166,52.8891109 L11.6936752,52.8891109 C10.1414467,52.8891109 8.88311688,51.6362918 8.88311688,50.093642 L8.88311688,19.2889754 Z M26.5294705,57.3006993 C26.5294705,56.0824728 27.5139416,55.0949051 28.7298487,55.0949051 L44.1812402,55.0949051 C45.3964755,55.0949051 46.3816184,56.0739795 46.3816184,57.3006993 C46.3816184,58.5189258 45.3971473,59.5064935 44.1812402,59.5064935 L28.7298487,59.5064935 C27.5146134,59.5064935 26.5294705,58.5274191 26.5294705,57.3006993 Z M12.3452547,21.6334943 C12.3452547,20.6022348 13.1738279,19.7662338 14.2110599,19.7662338 L35.6259743,19.7662338 L35.6259743,49.6163833 L14.2110599,49.6163836 C13.1806042,49.6163836 12.3452547,48.786865 12.3452547,47.7491231 L12.3452547,21.6334943 Z" id="Rectangle-16-Copy-3"></path>
                </g>
            </g>
        </g>
    </g>
</svg>