<?xml version="1.0" encoding="UTF-8" standalone="no"?>
<svg width="72px" height="73px" viewBox="0 0 72 73" version="1.1" xmlns="http://www.w3.org/2000/svg" xmlns:xlink="http://www.w3.org/1999/xlink" xmlns:sketch="http://www.bohemiancoding.com/sketch/ns">
    <!-- Generator: Sketch 3.4.4 (17249) - http://www.bohemiancoding.com/sketch -->
    <title>Rectangle 63</title>
    <desc>Created with Sketch.</desc>
    <defs>
        <path d="M0,7.00871658 C0,3.69019405 2.69107868,1 5.99943435,1 L66.0005656,1 C69.3139617,1 72,3.69429437 72,7.00871658 L72,67.6612816 C72,70.9798041 69.3089213,73.6699982 66.0005656,73.6699982 L5.99943435,73.6699982 C2.68603825,73.6699982 0,70.9757038 0,67.6612816 L0,7.00871658 Z M21.7735849,34.5636364 C28.2759563,34.5636364 33.5471698,29.2887367 33.5471698,22.7818182 C33.5471698,16.2748997 28.2759563,11 21.7735849,11 C15.2712135,11 10,16.2748997 10,22.7818182 C10,29.2887367 15.2712135,34.5636364 21.7735849,34.5636364 Z M50.2264151,34.5636364 C56.7287865,34.5636364 62,29.2887367 62,22.7818182 C62,16.2748997 56.7287865,11 50.2264151,11 C43.7240437,11 38.4528302,16.2748997 38.4528302,22.7818182 C38.4528302,29.2887367 43.7240437,34.5636364 50.2264151,34.5636364 Z M21.7735849,65 C28.2759563,65 33.5471698,59.7251003 33.5471698,53.2181818 C33.5471698,46.7112633 28.2759563,41.4363636 21.7735849,41.4363636 C15.2712135,41.4363636 10,46.7112633 10,53.2181818 C10,59.7251003 15.2712135,65 21.7735849,65 Z M50.2264151,65 C56.7287865,65 62,59.7251003 62,53.2181818 C62,46.7112633 56.7287865,41.4363636 50.2264151,41.4363636 C43.7240437,41.4363636 38.4528302,46.7112633 38.4528302,53.2181818 C38.4528302,59.7251003 43.7240437,65 50.2264151,65 Z" id="path-1"></path>
    </defs>
    <g id="WEB-11*" stroke="none" stroke-width="1" fill="none" fill-rule="evenodd" sketch:type="MSPage">
        <g id="Sample-Copy-2" sketch:type="MSArtboardGroup" transform="translate(-80.000000, -2396.000000)">
            <g id="Learn-about-a-great--+-Diverse-+-Rectangle-63" sketch:type="MSLayerGroup" transform="translate(80.000000, 2395.000000)">
                <g id="Rectangle-63">
                    <use fill="none" sketch:type="MSShapeGroup" xlink:href="#path-1"></use>
                    <use fill="#E1655E" fill-rule="evenodd" xlink:href="#path-1"></use>
                    <use fill-opacity="0.0399999991" fill="none" fill-rule="evenodd" xlink:href="#path-1"></use>
                </g>
            </g>
        </g>
    </g>
</svg>