<?xml version="1.0" encoding="UTF-8" standalone="no"?>
<svg width="72px" height="73px" viewBox="0 0 72 73" version="1.1" xmlns="http://www.w3.org/2000/svg" xmlns:xlink="http://www.w3.org/1999/xlink" xmlns:sketch="http://www.bohemiancoding.com/sketch/ns">
    <!-- Generator: Sketch 3.5.1 (25234) - http://www.bohemiancoding.com/sketch -->
    <title>cookie</title>
    <desc>Created with Sketch.</desc>
    <defs>
        <path d="M0,6.00871658 C0,2.69019405 2.69107868,0 5.99943435,0 L66.0005656,0 C69.3139617,0 72,2.69429437 72,6.00871658 L72,66.6612816 C72,69.9798041 69.3089213,72.6699982 66.0005656,72.6699982 L5.99943435,72.6699982 C2.68603825,72.6699982 0,69.9757038 0,66.6612816 L0,6.00871658 Z M36.5002777,63 C21.3365576,63 9,50.7236552 9,35.6302506 C9,25.1683863 15.1496754,15.4802875 24.6679557,10.9526531 C25.3437869,10.632093 26.1340152,10.6381726 26.8054038,10.9747607 C27.4751265,11.310796 27.9521511,11.9369935 28.0959805,12.6693074 C28.3264406,13.8515108 29.2538343,16.600037 32.8606739,16.600037 C35.380186,16.600037 36.5791339,15.244289 37.1394574,14.1035374 C37.642027,13.0876936 38.788219,12.5499265 39.8977595,12.8235079 C41.005634,13.0970893 41.7736493,14.0974578 41.7431064,15.2326825 C41.6959037,17.0808771 42.2106905,18.7383936 43.1219798,19.6724393 C44.3303682,20.9049375 46.4206137,20.9872883 49.2039055,19.9935521 C50.2212619,19.6287768 51.3585687,19.9808402 51.9894185,20.8551954 C52.6236003,21.7262345 52.5997213,22.9089905 51.93222,23.7573693 C50.8737694,25.1037216 50.7738108,27.0812455 51.6728829,28.9167282 C52.740774,31.0993 54.8798881,32.4014371 57.3949576,32.4014371 C58.4783978,32.4014371 59.4363344,32.1687547 60.3231894,31.6939942 C61.0506659,31.3043479 61.9219717,31.3065587 62.6455609,31.7000738 C63.3674842,32.0963523 63.8384003,32.8286663 63.8967094,33.6460944 L63.9189225,33.9450996 C63.9600166,34.5049743 64,35.0609802 64,35.6302506 C64,50.7236552 51.6645531,63 36.5002777,63 Z M61.9791702,13.4933679 C61.9791702,14.606485 61.0728789,15.5057113 59.9561192,15.5057113 C58.8388041,15.5057113 57.9341788,14.606485 57.9341788,13.4933679 C57.9341788,12.3835668 58.8388041,11.4810245 59.9561192,11.4810245 C61.0728789,11.4810245 61.9791702,12.3835668 61.9791702,13.4933679 Z M52.2043295,12.1542006 C52.2043295,13.8929626 50.786028,15.3045322 49.0367525,15.3045322 C47.2885876,15.3045322 45.870286,13.8929626 45.870286,12.1542006 C45.870286,10.4121225 47.2885876,9.00000016 49.0367525,9.00000016 C50.786028,8.99944747 52.2043295,10.4121225 52.2043295,12.1542006 Z M60.3609515,26.3732499 C61.5895831,26.3732499 62.5855858,25.3819747 62.5855858,24.1591748 C62.5855858,22.9363748 61.5895831,21.9450996 60.3609515,21.9450996 C59.13232,21.9450996 58.1363173,22.9363748 58.1363173,24.1591748 C58.1363173,25.3819747 59.13232,26.3732499 60.3609515,26.3732499 Z M24.6379681,33.1243553 C26.5364278,33.1243553 28.0754334,31.5926544 28.0754334,29.7032057 C28.0754334,27.813757 26.5364278,26.2820561 24.6379681,26.2820561 C22.7395085,26.2820561 21.2005028,27.813757 21.2005028,29.7032057 C21.2005028,31.5926544 22.7395085,33.1243553 24.6379681,33.1243553 Z M27.1308246,46.5635594 C29.0292843,46.5635594 30.5682899,45.0318585 30.5682899,43.1424098 C30.5682899,41.252961 29.0292843,39.7212602 27.1308246,39.7212602 C25.2323649,39.7212602 23.6933593,41.252961 23.6933593,43.1424098 C23.6933593,45.0318585 25.2323649,46.5635594 27.1308246,46.5635594 Z M39.7356044,50.8590641 C41.6340641,50.8590641 43.1730697,49.3273633 43.1730697,47.4379146 C43.1730697,45.5484658 41.6340641,44.016765 39.7356044,44.016765 C37.8371448,44.016765 36.2981392,45.5484658 36.2981392,47.4379146 C36.2981392,49.3273633 37.8371448,50.8590641 39.7356044,50.8590641 Z M38.1917994,37.1960207 C40.090259,37.1960207 41.6292646,35.6643199 41.6292646,33.7748711 C41.6292646,31.8854224 40.090259,30.3537215 38.1917994,30.3537215 C36.2933397,30.3537215 34.7543341,31.8854224 34.7543341,33.7748711 C34.7543341,35.6643199 36.2933397,37.1960207 38.1917994,37.1960207 Z" id="path-1"></path>
    </defs>
    <g id="WEB-12*" stroke="none" stroke-width="1" fill="none" fill-rule="evenodd" sketch:type="MSPage">
        <g id="Sample-Copy-2" sketch:type="MSArtboardGroup" transform="translate(-80.000000, -2502.000000)">
            <g id="Perfect-sized-episod-+-Digestible-+-Rectangle-63-Copy-4" sketch:type="MSLayerGroup" transform="translate(80.000000, 2502.000000)">
                <g id="cookie">
                    <use fill="none" sketch:type="MSShapeGroup" xlink:href="#path-1"></use>
                    <use fill="#E1655E" fill-rule="evenodd" xlink:href="#path-1"></use>
                    <use fill-opacity="0.0399999991" fill="none" fill-rule="evenodd" xlink:href="#path-1"></use>
                </g>
            </g>
        </g>
    </g>
</svg>