<?xml version="1.0" encoding="UTF-8" standalone="no"?>
<svg width="72px" height="73px" viewBox="0 0 72 73" version="1.1" xmlns="http://www.w3.org/2000/svg" xmlns:xlink="http://www.w3.org/1999/xlink" xmlns:sketch="http://www.bohemiancoding.com/sketch/ns">
    <!-- Generator: Sketch 3.4.4 (17249) - http://www.bohemiancoding.com/sketch -->
    <title>Rectangle 63 Copy 4</title>
    <desc>Created with Sketch.</desc>
    <defs>
        <path d="M0,6.00871658 C0,2.69019405 2.69107868,0 5.99943435,0 L66.0005656,0 C69.3139617,0 72,2.69429437 72,6.00871658 L72,66.6612816 C72,69.9798041 69.3089213,72.6699982 66.0005656,72.6699982 L5.99943435,72.6699982 C2.68603825,72.6699982 0,69.9757038 0,66.6612816 L0,6.00871658 Z M22.0949616,24.6546543 C23.3473356,23.5159931 25.3433462,23.1906311 25.3433462,23.1906311 C25.3433462,23.1906311 26.6662063,20.9070951 27.5675208,20.2467705 C28.2423033,19.7524086 30.0716371,19.7265716 30.0716371,19.7265716 C30.0716371,19.7265716 30.6850462,18.1254379 31.022178,17.4869935 C31.3593098,16.8485492 38.9828564,11 40.8283728,11 C42.6738891,11 46.3426053,12.202131 51.714553,14.6357025 C53.3805212,15.3895877 50.832302,17.9458179 48.3417993,18.8107034 C46.4249291,19.4763815 42.3514259,17.5370182 41.7721712,17.8897425 C41.1929167,18.2424668 36.805199,21.6739972 36.805199,22.4323145 L36.805199,31.467407 C36.805199,35.295522 39.1555976,38.4539511 41.7721712,39.9585665 C44.3887448,41.4631819 48.8751388,34.2315426 48.8751388,34.2315426 C48.8751388,34.2315426 51.7145544,21.426386 57.8212318,24.0938481 C58.35892,24.4156365 57.5646438,26.8255831 57.0079265,29.8693464 C56.5944087,32.1301894 56.4605683,35.2291177 56.3148619,35.498196 C53.7994047,40.14353 50.4360941,46.7893743 50.1108451,47.5015646 C49.7855963,48.2137548 41.6307669,57.0293039 41.0835296,57.7407158 C40.5362921,58.4521276 40.0186462,59.3830951 39.676137,59.8348562 C39.3336276,60.2866173 38.691127,62.558886 38.691127,62.558886 C38.691127,62.558886 36.8841919,65 29.6386731,65 C22.3931545,65.0000016 20.5862194,62.558886 20.5862194,62.558886 C20.5862194,62.558886 20.8284855,58.1960171 20.8284855,57.5170435 C20.8284855,56.83807 15.0000001,42.1649005 15,40.4010707 C15,39.1924082 16.2938757,34.2695071 17.7899524,31.7523077 C18.4771361,30.596098 20.0612748,30.52656 20.0612748,30.52656 C20.0612748,30.52656 20.8425877,25.7933155 22.0949616,24.6546543 Z" id="path-1"></path>
    </defs>
    <g id="WEB-11*" stroke="none" stroke-width="1" fill="none" fill-rule="evenodd" sketch:type="MSPage">
        <g id="Sample-Copy-2" sketch:type="MSArtboardGroup" transform="translate(-80.000000, -2502.000000)">
            <g id="Perfect-sized-episod-+-Digestible-+-Rectangle-63-Copy-4" sketch:type="MSLayerGroup" transform="translate(80.000000, 2502.000000)">
                <g id="Rectangle-63-Copy-4">
                    <use fill="none" sketch:type="MSShapeGroup" xlink:href="#path-1"></use>
                    <use fill="#E1655E" fill-rule="evenodd" xlink:href="#path-1"></use>
                    <use fill-opacity="0.0399999991" fill="none" fill-rule="evenodd" xlink:href="#path-1"></use>
                </g>
            </g>
        </g>
    </g>
</svg>