<?xml version="1.0" encoding="UTF-8" standalone="no"?>
<svg width="72px" height="72px" viewBox="0 0 72 72" version="1.1" xmlns="http://www.w3.org/2000/svg" xmlns:xlink="http://www.w3.org/1999/xlink" xmlns:sketch="http://www.bohemiancoding.com/sketch/ns">
    <!-- Generator: Sketch 3.4.4 (17249) - http://www.bohemiancoding.com/sketch -->
    <title>Shape</title>
    <desc>Created with Sketch.</desc>
    <defs></defs>
    <g id="WEB-8-*" stroke="none" stroke-width="1" fill="none" fill-rule="evenodd" sketch:type="MSPage">
        <g id="Sample-Copy-2" sketch:type="MSArtboardGroup" transform="translate(-401.000000, -1306.000000)" fill="#C6514A">
            <g id="highlights-feature" sketch:type="MSLayerGroup" transform="translate(67.000000, 1102.000000)">
                <g id="Rectangle-16-Copy-3-+-Watch-on-a-tablet-an-+-Multi-tasking-Ready" transform="translate(334.000000, 202.000000)" sketch:type="MSShapeGroup">
                    <path d="M10.5055118,23.9143593 C9.33497851,25.0966237 8.92104514,26.1373288 8.91714011,27.0960271 C8.88882863,28.5848407 10.0759583,30.4944271 12.9598243,32.3366508 C15.3516562,33.8703729 18.8144432,35.2781559 23.1744112,36.340339 L23.5395317,36.340339 C22.4685767,31.9354034 20.997356,28.4950237 19.3904354,26.145139 C17.496495,23.3744814 15.5273827,22.2263864 13.9292484,22.2449356 C12.8514596,22.2488407 11.7277867,22.7008542 10.5074643,23.9143593 L10.5055118,23.9143593 Z M31.499939,27.1643661 C30.3772423,29.1784136 29.3082399,32.2429288 28.3807948,36.340339 L28.8425648,36.340339 C32.7505254,35.4314305 35.6949194,34.3956068 37.6445065,33.3080407 C40.0607449,31.9480949 40.772437,30.7355661 40.7597456,29.7309831 C40.776342,28.8738169 40.2140174,27.6154034 38.7008176,26.1099932 C37.1934753,24.5938441 35.9370314,24.0334644 35.0779244,24.0490847 C34.0723787,24.0363932 32.85889,24.7480949 31.499939,27.1643661 Z M5.98641374,27.0960271 C5.98250871,25.2040136 6.87773725,23.3881492 8.43291616,21.8456407 C10.0388605,20.2269831 11.948421,19.3112407 13.9292484,19.3170983 C16.9429567,19.3356475 19.6364524,21.3106441 21.8076501,24.4952407 C22.7399764,25.8639729 23.5922496,27.4923932 24.3576358,29.3424271 L24.3576358,2 L7.47362659,2 C3.3460566,2 0,5.35522151 0,9.47251062 L0,36.340339 L14.1781942,36.340339 C13.1599572,35.8551322 12.224702,35.3416136 11.3812152,34.8036881 C8.11367981,32.7125153 6.01472522,30.1224678 5.98641374,27.0960271 Z M18.7666066,61.9811254 C19.3621239,62.5278373 19.3992217,63.4543186 18.8534935,64.0498441 C18.5635449,64.3632271 18.1701129,64.5213831 17.7757047,64.5213831 C17.4213231,64.5213831 17.0659652,64.3934915 16.7848029,64.1347797 C15.2393866,62.663539 14.7893317,60.4942644 14.7707828,58.0955661 C14.832287,52.3882847 17.5853344,44.5888542 22.3602121,39.6586847 L0,39.6586847 L0,66.5265131 C0,70.6534668 3.34849297,73.9990237 7.47362659,73.9990237 L24.3576358,73.9990237 L24.3576358,41.765478 C20.3608358,46.0073763 17.6370761,53.3411254 17.6995566,58.0965424 C17.6810077,60.1066847 18.2003769,61.5086102 18.7666066,61.9811254 Z M35.0769481,21.1202712 C37.1280661,21.1349153 38.9868612,22.2625085 40.7714607,24.0383458 C42.5472739,25.8210169 43.6728994,27.6798373 43.6894957,29.7309831 C43.6748519,32.2946712 41.8560833,34.335078 39.0659381,35.8688 C38.774037,36.0298847 38.4626107,36.1851119 38.1453268,36.340339 L72,36.340339 L72,9.47251062 C72,5.34555696 68.6504698,2 64.5189588,2 L27.6778891,2 L27.6778891,28.4637831 C28.0762024,27.4601763 28.495017,26.5473627 28.9392144,25.7438915 C30.4709631,22.9517559 32.514271,21.1319864 35.0769481,21.1202712 Z M37.3223414,56.7834576 C37.1534488,56.845939 36.9806511,56.8762034 36.8117585,56.8762034 C36.2181937,56.8762034 35.6587978,56.5120542 35.4401161,55.9223864 C32.4078589,47.7988339 29.5815921,43.6858034 27.6769129,41.6375864 L27.6769129,74 L64.5179826,74 C68.6496475,74 71.9990237,70.6447785 71.9990237,66.5274894 L71.9990237,39.659661 L29.8334667,39.659661 C32.0847175,42.0837424 35.0857344,46.5765424 38.1853534,54.9002305 C38.467492,55.6578169 38.0818701,56.5013153 37.3223414,56.7834576 Z" id="Shape"></path>
                </g>
            </g>
        </g>
    </g>
</svg>