<?xml version="1.0" encoding="UTF-8" standalone="no"?>
<svg width="72px" height="72px" viewBox="0 0 72 72" version="1.1" xmlns="http://www.w3.org/2000/svg" xmlns:xlink="http://www.w3.org/1999/xlink" xmlns:sketch="http://www.bohemiancoding.com/sketch/ns">
    <!-- Generator: Sketch 3.4.4 (17249) - http://www.bohemiancoding.com/sketch -->
    <title>Rectangle 16 Copy 2</title>
    <desc>Created with Sketch.</desc>
    <defs></defs>
    <g id="WEB-8-*" stroke="none" stroke-width="1" fill="none" fill-rule="evenodd" sketch:type="MSPage">
        <g id="Sample-Copy-2" sketch:type="MSArtboardGroup" transform="translate(-401.000000, -1106.000000)" fill="#C24E47" opacity="0.927238806">
            <g id="highlights-feature" sketch:type="MSLayerGroup" transform="translate(67.000000, 1102.000000)">
                <g id="Rectangle-16-Copy-2-+-All-shows-updated-at-+-Frequent-Updates" transform="translate(334.000000, 0.000000)" sketch:type="MSShapeGroup">
                    <path d="M0,11.4846253 C0,7.35098089 3.35218535,4 7.48462531,4 L64.5153747,4 C68.6490191,4 72,7.35218535 72,11.4846253 L72,68.5153747 C72,72.6490191 68.6478147,76 64.5153747,76 L7.48462531,76 C3.35098089,76 0,72.6478147 0,68.5153747 L0,11.4846253 Z M36,50.7532468 L32.4601475,61.213173 L32.5084265,50.1706062 L25.7640405,58.9143965 L29.3952191,48.4858226 L20.1771585,54.5659517 L26.9977423,45.8814685 L16.3049269,48.63906 L25.5757997,42.639766 L14.5669621,41.7759922 L25.283481,39.1120039 L15.1515995,34.720468 L26.1524634,35.68047 L17.9954846,28.237063 L28.0885792,32.7170241 L22.7904383,23.0283548 L30.8820202,30.5428017 L29.016853,19.6587876 L34.2300738,29.3934135 L36,18.4935065 L37.7699262,29.3934135 L42.983147,19.6587876 L41.1179798,30.5428017 L49.2095617,23.0283548 L43.9114208,32.7170241 L54.0045154,28.237063 L45.8475366,35.68047 L56.8484005,34.720468 L46.716519,39.1120039 L57.4330379,41.7759922 L46.4242003,42.639766 L55.6950731,48.63906 L45.0022577,45.8814685 L51.8228415,54.5659517 L42.6047809,48.4858226 L46.2359595,58.9143965 L39.4915735,50.1706062 L39.5398525,61.213173 L36,50.7532468 Z" id="Rectangle-16-Copy-2"></path>
                </g>
            </g>
        </g>
    </g>
</svg>