<?xml version="1.0" encoding="UTF-8" standalone="no"?>
<svg width="72px" height="72px" viewBox="0 0 72 72" version="1.1" xmlns="http://www.w3.org/2000/svg" xmlns:xlink="http://www.w3.org/1999/xlink" xmlns:sketch="http://www.bohemiancoding.com/sketch/ns">
    <!-- Generator: Sketch 3.4.4 (17249) - http://www.bohemiancoding.com/sketch -->
    <title>Rectangle 16 Copy 2</title>
    <desc>Created with Sketch.</desc>
    <defs></defs>
    <g id="WEB-8-*" stroke="none" stroke-width="1" fill="none" fill-rule="evenodd" sketch:type="MSPage">
        <g id="Sample-Copy-2" sketch:type="MSArtboardGroup" transform="translate(-67.000000, -1207.000000)" fill="#C24E47" opacity="0.927238806">
            <g id="highlights-feature" sketch:type="MSLayerGroup" transform="translate(67.000000, 1102.000000)">
                <g id="Rectangle-16-Copy-2-+-Gain-a-headstart-on--+-Research-To-Go" transform="translate(0.000000, 102.000000)" sketch:type="MSShapeGroup">
                    <path d="M33.9596899,26.3766234 L29.9220779,26.3766234 L20.5714286,35.7272727 L20.5714286,62.8441558 L47.6883117,62.8441558 L47.6883117,26.3766234 L37.902876,26.3766234 L42.6921767,14.5728191 L49.4675363,14.5432367 C50.2421694,14.5432367 50.8701337,13.9152725 50.8701337,13.1406393 C50.8701337,12.3660062 50.2421694,11.7380419 49.4675363,11.7380419 L41.3806294,11.7380419 C40.7977744,11.7380419 40.2756602,12.0985057 40.0690821,12.6435244 L33.9596899,26.3766234 Z M36.8477604,47.7526488 L33.4765854,45.956405 C33.5956074,45.7104338 33.6623377,45.4344383 33.6623377,45.1428571 C33.6623377,44.1100129 32.825052,43.2727273 31.7922078,43.2727273 C30.7593636,43.2727273 29.9220779,44.1100129 29.9220779,45.1428571 C29.9220779,45.3996527 29.9738361,45.6443594 30.0674895,45.8671144 L27.9001585,49.0545553 C27.6619003,48.9445102 27.3965613,48.8831169 27.1168831,48.8831169 C26.0840389,48.8831169 25.2467532,49.7204025 25.2467532,50.7532468 C25.2467532,51.786091 26.0840389,52.6233766 27.1168831,52.6233766 C28.1497273,52.6233766 28.987013,51.786091 28.987013,50.7532468 C28.987013,50.3403229 28.8531859,49.958656 28.6265385,49.6492529 L30.6722439,46.6406836 C30.9844397,46.8744962 31.3721506,47.012987 31.7922078,47.012987 C32.1859628,47.012987 32.5512955,46.8912967 32.8526489,46.6834729 L36.4859817,48.6194007 C36.4738215,48.7055587 36.4675325,48.7936034 36.4675325,48.8831169 C36.4675325,49.9159611 37.3048181,50.7532468 38.3376623,50.7532468 C39.3705065,50.7532468 40.2077922,49.9159611 40.2077922,48.8831169 C40.2077922,48.3631986 39.995627,47.8928341 39.6531526,47.5538797 L41.5918784,44.1440086 C41.7468667,44.1856085 41.9098037,44.2077922 42.0779221,44.2077922 C43.1107663,44.2077922 43.9480519,43.3705065 43.9480519,42.3376623 C43.9480519,41.3048181 43.1107663,40.4675325 42.0779221,40.4675325 C41.0450779,40.4675325 40.2077922,41.3048181 40.2077922,42.3376623 C40.2077922,42.8656884 40.4266262,43.3426031 40.7785486,43.6826607 L38.845394,47.082733 C38.6839434,47.0372937 38.5136414,47.012987 38.3376623,47.012987 C37.7295993,47.012987 37.1893167,47.3031896 36.8477604,47.7526488 Z M0,10.4846253 C0,6.35098089 3.35218535,3 7.48462531,3 L64.5153747,3 C68.6490191,3 72,6.35218535 72,10.4846253 L72,67.5153747 C72,71.6490191 68.6478147,75 64.5153747,75 L7.48462531,75 C3.35098089,75 0,71.6478147 0,67.5153747 L0,10.4846253 Z M30.8571429,27.7792208 L30.8571429,37.1298701 L31.3246753,36.6623377 L21.974026,36.6623377 L21.974026,37.5974026 L31.3246753,37.5974026 C31.5828864,37.5974026 31.7922078,37.3880812 31.7922078,37.1298701 L31.7922078,27.7792208 L30.8571429,27.7792208 Z" id="Rectangle-16-Copy-2"></path>
                </g>
            </g>
        </g>
    </g>
</svg>