<?xml version="1.0" encoding="UTF-8" standalone="no"?>
<svg width="72px" height="72px" viewBox="0 0 72 72" version="1.1" xmlns="http://www.w3.org/2000/svg" xmlns:xlink="http://www.w3.org/1999/xlink" xmlns:sketch="http://www.bohemiancoding.com/sketch/ns">
    <!-- Generator: Sketch 3.4.4 (17249) - http://www.bohemiancoding.com/sketch -->
    <title>Rectangle 16</title>
    <desc>Created with Sketch.</desc>
    <defs></defs>
    <g id="WEB-8-*" stroke="none" stroke-width="1" fill="none" fill-rule="evenodd" sketch:type="MSPage">
        <g id="Sample-Copy-2" sketch:type="MSArtboardGroup" transform="translate(-67.000000, -1306.000000)" fill="#C24E47" opacity="0.927238806">
            <g id="highlights-feature" sketch:type="MSLayerGroup" transform="translate(67.000000, 1102.000000)">
                <g id="Rectangle-16-+-Split-into-short-epi-+-Digestible-Portions" transform="translate(0.000000, 202.000000)" sketch:type="MSShapeGroup">
                    <path d="M0,9.48462531 C0,5.35098089 3.35218535,2 7.48462531,2 L64.5153747,2 C68.6490191,2 72,5.35218535 72,9.48462531 L72,66.5153747 C72,70.6490191 68.6478147,74 64.5153747,74 L7.48462531,74 C3.35098089,74 0,70.6478147 0,66.5153747 L0,9.48462531 Z M18.5705009,24.3668722 C19.950371,23.1254997 22.1495826,22.7707889 22.1495826,22.7707889 C22.1495826,22.7707889 23.6071146,20.2812698 24.6001861,19.5613816 C25.3436639,19.0224265 27.3592304,18.9942589 27.3592304,18.9942589 C27.3592304,18.9942589 28.0350868,17.2486972 28.4065398,16.5526629 C28.7779929,15.8566286 37.1776437,9.48051948 39.2110403,9.48051948 C41.2444368,9.48051948 45.2866414,10.791087 51.2054726,13.4441753 C53.0410423,14.2660636 50.2334053,17.0528749 47.4893605,17.9957761 C45.377346,18.7215008 40.8891456,16.6072 40.2509208,16.9917413 C39.612696,17.3762826 34.778293,21.1173492 34.778293,21.9440695 L34.778293,31.7941594 C34.778293,35.967584 37.3679706,39.4109146 40.2509208,41.0512517 C43.1338709,42.6915888 48.0769958,34.8076299 48.0769958,34.8076299 C48.0769958,34.8076299 51.2054741,20.8474026 57.9338331,23.7554792 C58.5262599,24.1062941 57.6511235,26.7336265 57.0377304,30.0519481 C56.582115,32.5167271 56.4346492,35.8951898 56.2741093,36.1885399 C53.5025697,41.2528996 49.796862,48.4982227 49.4385015,49.274655 C49.0801411,50.0510874 40.095121,59.6618304 39.492173,60.4374141 C38.8892248,61.2129979 38.3188806,62.2279419 37.9415027,62.7204534 C37.5641247,63.212965 36.8562152,65.6902004 36.8562152,65.6902004 C36.8562152,65.6902004 34.8653277,68.3515116 26.8821892,68.3515116 C18.8990508,68.3515134 16.9081632,65.6902004 16.9081632,65.6902004 C16.9081632,65.6902004 17.1750929,60.9337852 17.1750929,60.1935658 C17.1750929,59.4533465 10.7532469,43.4566049 10.7532468,41.5336714 C10.7532467,40.2159833 12.1788436,34.8490189 13.8272263,32.1047591 C14.5843678,30.8442552 16.3297774,30.7684446 16.3297774,30.7684446 C16.3297774,30.7684446 17.1906307,25.6082447 18.5705009,24.3668722 Z" id="Rectangle-16"></path>
                </g>
            </g>
        </g>
    </g>
</svg>