<?xml version="1.0" encoding="UTF-8" standalone="no"?>
<svg width="72px" height="72px" viewBox="0 0 72 72" version="1.1" xmlns="http://www.w3.org/2000/svg" xmlns:xlink="http://www.w3.org/1999/xlink" xmlns:sketch="http://www.bohemiancoding.com/sketch/ns">
    <!-- Generator: Sketch 3.4.4 (17249) - http://www.bohemiancoding.com/sketch -->
    <title>Rectangle 16 Copy</title>
    <desc>Created with Sketch.</desc>
    <defs></defs>
    <g id="WEB-8-*" stroke="none" stroke-width="1" fill="none" fill-rule="evenodd" sketch:type="MSPage">
        <g id="Sample-Copy-2" sketch:type="MSArtboardGroup" transform="translate(-67.000000, -1106.000000)" fill="#C24E47" opacity="0.927238806">
            <g id="highlights-feature" sketch:type="MSLayerGroup" transform="translate(67.000000, 1102.000000)">
                <g id="Shows-from-a-variety-+-Rectangle-16-+-Diverse-Variety" sketch:type="MSShapeGroup">
                    <path d="M0,11.4340792 C0,7.32835062 3.32830851,4 7.43407917,4 L64.5659208,4 C68.6716494,4 72,7.32830851 72,11.4340792 L72,68.5659208 C72,72.6716494 68.6716915,76 64.5659208,76 L7.43407917,76 C3.32835062,76 0,72.6716915 0,68.5659208 L0,11.4340792 Z M14.6862915,24 L26,12.6862915 L37.3137085,24 L26,35.3137085 L14.6862915,24 Z M15,36 L40,61 L15,61 L15,36 Z M49,56 C56.7319865,56 63,49.7319865 63,42 C63,34.2680135 56.7319865,28 49,28 C41.2680135,28 35,34.2680135 35,42 C35,49.7319865 41.2680135,56 49,56 Z" id="Rectangle-16-Copy"></path>
                </g>
            </g>
        </g>
    </g>
</svg>