<?xml version="1.0" encoding="UTF-8"?>
<svg width="302px" height="38px" viewBox="0 0 302 38" version="1.1" xmlns="http://www.w3.org/2000/svg" xmlns:xlink="http://www.w3.org/1999/xlink">
    <!-- Generator: Sketch 43.2 (39069) - http://www.bohemiancoding.com/sketch -->
    <title>logo__dark--small</title>
    <desc>Created with Sketch.</desc>
    <defs></defs>
    <g id="Page-1" stroke="none" stroke-width="1" fill="none" fill-rule="evenodd">
        <g id="Artboard-Copy-2" transform="translate(-507.000000, -563.000000)" fill="#F86762">
            <path d="M513.698,573.432 L507.056,573.432 L507.056,563.982 L532.22,563.982 L532.22,573.432 L525.578,573.432 L525.578,600 L513.698,600 L513.698,573.432 Z M520.34,595.68 L520.34,569.598 L528.062,569.598 L528.062,568.302 L511.214,568.302 L511.214,569.598 L518.936,569.598 L518.936,595.68 L520.34,595.68 Z M534.11,563.982 L545.612,563.982 L545.612,576.24 L552.038,576.24 L552.038,563.982 L563.594,563.982 L563.594,600 L552.038,600 L552.038,586.662 L545.612,586.662 L545.612,600 L534.11,600 L534.11,563.982 Z M540.914,595.68 L540.914,582.018 L556.79,582.018 L556.79,595.68 L558.194,595.68 L558.194,568.302 L556.79,568.302 L556.79,580.722 L540.914,580.722 L540.914,568.302 L539.51,568.302 L539.51,595.68 L540.914,595.68 Z M567.374,563.982 L579.578,563.982 L579.578,600 L567.374,600 L567.374,563.982 Z M574.178,595.68 L574.178,568.302 L572.774,568.302 L572.774,595.68 L574.178,595.68 Z M583.358,563.982 L592.808,563.982 L602.744,577.86 L602.744,563.982 L614.03,563.982 L614.03,600 L604.526,600 L594.644,586.176 L594.644,600 L583.358,600 L583.358,563.982 Z M589.784,595.68 L589.784,570.732 L607.604,595.68 L609.008,595.68 L609.008,568.302 L607.604,568.302 L607.604,593.25 L589.784,568.302 L588.38,568.302 L588.38,595.68 L589.784,595.68 Z M617.81,563.982 L629.474,563.982 L629.474,572.298 L636.278,563.982 L650.372,563.982 L637.682,580.452 L651.02,600 L637.142,600 L629.474,588.876 L629.474,600 L617.81,600 L617.81,563.982 Z M624.614,595.68 L624.614,588.39 L630.23,581.424 L640.058,595.68 L641.732,595.68 L631.202,580.29 L640.868,568.302 L639.14,568.302 L624.614,586.23 L624.614,568.302 L623.21,568.302 L623.21,595.68 L624.614,595.68 Z M646.16,582.018 C646.16,579.425987 646.654995,576.978012 647.645,574.674 C648.635005,572.369988 649.984991,570.363009 651.695,568.653 C653.405009,566.942991 655.411988,565.593005 657.716,564.603 C660.020012,563.612995 662.467987,563.118 665.06,563.118 C667.652013,563.118 670.099988,563.612995 672.404,564.603 C674.708012,565.593005 676.714991,566.942991 678.425,568.653 C680.135009,570.363009 681.484995,572.369988 682.475,574.674 C683.465005,576.978012 683.96,579.425987 683.96,582.018 C683.96,584.610013 683.465005,587.057988 682.475,589.362 C681.484995,591.666012 680.135009,593.672991 678.425,595.383 C676.714991,597.093009 674.708012,598.442995 672.404,599.433 C670.099988,600.423005 667.652013,600.918 665.06,600.918 C662.467987,600.918 660.020012,600.423005 657.716,599.433 C655.411988,598.442995 653.405009,597.093009 651.695,595.383 C649.984991,593.672991 648.635005,591.666012 647.645,589.362 C646.654995,587.057988 646.16,584.610013 646.16,582.018 Z M651.236,582.018 C651.236,583.92601 651.595996,585.716992 652.316,587.391 C653.036004,589.065008 654.025994,590.531994 655.286,591.792 C656.546006,593.052006 658.012992,594.041996 659.687,594.762 C661.361008,595.482004 663.15199,595.842 665.06,595.842 C666.96801,595.842 668.758992,595.482004 670.433,594.762 C672.107008,594.041996 673.573994,593.052006 674.834,591.792 C676.094006,590.531994 677.083996,589.065008 677.804,587.391 C678.524004,585.716992 678.884,583.92601 678.884,582.018 C678.884,580.10999 678.524004,578.319008 677.804,576.645 C677.083996,574.970992 676.094006,573.504006 674.834,572.244 C673.573994,570.983994 672.107008,569.994004 670.433,569.274 C668.758992,568.553996 666.96801,568.194 665.06,568.194 C663.15199,568.194 661.361008,568.553996 659.687,569.274 C658.012992,569.994004 656.546006,570.983994 655.286,572.244 C654.025994,573.504006 653.036004,574.970992 652.316,576.645 C651.595996,578.319008 651.236,580.10999 651.236,582.018 Z M657.5,582.018 C657.5,583.062005 657.697998,584.042995 658.094,584.961 C658.490002,585.879005 659.029997,586.679997 659.714,587.364 C660.398003,588.048003 661.198995,588.587998 662.117,588.984 C663.035005,589.380002 664.015995,589.578 665.06,589.578 C666.104005,589.578 667.084995,589.380002 668.003,588.984 C668.921005,588.587998 669.721997,588.048003 670.406,587.364 C671.090003,586.679997 671.629998,585.879005 672.026,584.961 C672.422002,584.042995 672.62,583.062005 672.62,582.018 C672.62,580.973995 672.422002,579.993005 672.026,579.075 C671.629998,578.156995 671.090003,577.356003 670.406,576.672 C669.721997,575.987997 668.921005,575.448002 668.003,575.052 C667.084995,574.655998 666.104005,574.458 665.06,574.458 C664.015995,574.458 663.035005,574.655998 662.117,575.052 C661.198995,575.448002 660.398003,575.987997 659.714,576.672 C659.029997,577.356003 658.490002,578.156995 658.094,579.075 C657.697998,579.993005 657.5,580.973995 657.5,582.018 Z M665.06,594.438 C663.331991,594.438 661.721007,594.114003 660.227,593.466 C658.732993,592.817997 657.419006,591.927006 656.285,590.793 C655.150994,589.658994 654.260003,588.345007 653.612,586.851 C652.963997,585.356993 652.64,583.746009 652.64,582.018 C652.64,580.289991 652.963997,578.679007 653.612,577.185 C654.260003,575.690993 655.150994,574.377006 656.285,573.243 C657.419006,572.108994 658.732993,571.218003 660.227,570.57 C661.721007,569.921997 663.331991,569.598 665.06,569.598 C666.788009,569.598 668.398993,569.921997 669.893,570.57 C671.387007,571.218003 672.700994,572.108994 673.835,573.243 C674.969006,574.377006 675.859997,575.690993 676.508,577.185 C677.156003,578.679007 677.48,580.289991 677.48,582.018 C677.48,583.746009 677.156003,585.356993 676.508,586.851 C675.859997,588.345007 674.969006,589.658994 673.835,590.793 C672.700994,591.927006 671.387007,592.817997 669.893,593.466 C668.398993,594.114003 666.788009,594.438 665.06,594.438 Z M690.494,595.302 C690.998003,595.410001 691.537997,595.5 692.114,595.572 C692.618003,595.644 693.148997,595.707 693.707,595.761 C694.265003,595.815 694.831997,595.842 695.408,595.842 C696.416005,595.842 697.396995,595.725001 698.351,595.491 C699.305005,595.256999 700.159996,594.870003 700.916,594.33 C701.672004,593.789997 702.274998,593.097004 702.725,592.251 C703.175002,591.404996 703.4,590.370006 703.4,589.146 C703.4,588.101995 703.139003,587.112005 702.617,586.176 C702.094997,585.239995 701.429004,584.340004 700.619,583.476 C699.808996,582.611996 698.945005,581.784004 698.027,580.992 C697.108995,580.199996 696.245004,579.399004 695.435,578.589 C694.624996,577.778996 693.959003,576.969004 693.437,576.159 C692.914997,575.348996 692.654,574.512004 692.654,573.648 C692.654,572.351994 693.067996,571.353004 693.896,570.651 C694.724004,569.948996 696.055991,569.598 697.892,569.598 C698.180001,569.598 698.476998,569.607 698.783,569.625 C699.089002,569.643 699.385999,569.67 699.674,569.706 C699.962001,569.742 700.249999,569.76 700.538,569.76 L700.538,568.356 C700.285999,568.356 700.016001,568.338 699.728,568.302 C699.475999,568.266 699.197002,568.239 698.891,568.221 C698.584998,568.203 698.270002,568.194 697.946,568.194 C696.00199,568.194 694.400006,568.634996 693.14,569.517 C691.879994,570.399004 691.25,571.775991 691.25,573.648 C691.25,574.656005 691.510997,575.600996 692.033,576.483 C692.555003,577.365004 693.220996,578.228996 694.031,579.075 C694.841004,579.921004 695.704995,580.739996 696.623,581.532 C697.541005,582.324004 698.404996,583.124996 699.215,583.935 C700.025004,584.745004 700.690997,585.581996 701.213,586.446 C701.735003,587.310004 701.996,588.209995 701.996,589.146 C701.996,590.874009 701.411006,592.187995 700.241,593.088 C699.070994,593.988004 697.46001,594.438 695.408,594.438 C694.183994,594.438 693.068005,594.348001 692.06,594.168 C691.519997,594.096 690.998003,594.006001 690.494,593.898 L690.494,595.302 Z M685.958,588.822 C686.750004,589.074001 687.577996,589.271999 688.442,589.416 C689.162004,589.596001 689.980995,589.739999 690.899,589.848 C691.817005,589.956001 692.743995,590.01 693.68,590.01 C695.336008,590.01 696.164,589.398006 696.164,588.174 C696.164,587.705998 695.912003,587.229002 695.408,586.743 C694.903997,586.256998 694.265004,585.717003 693.491,585.123 C692.716996,584.528997 691.889004,583.872004 691.007,583.152 C690.124996,582.431996 689.297004,581.604005 688.523,580.668 C687.748996,579.731995 687.110003,578.679006 686.606,577.509 C686.101997,576.338994 685.85,574.998008 685.85,573.486 C685.85,571.793992 686.155997,570.300006 686.768,569.004 C687.380003,567.707994 688.225995,566.628004 689.306,565.764 C690.386005,564.899996 691.654993,564.243002 693.113,563.793 C694.571007,563.342998 696.127992,563.118 697.784,563.118 C698.648004,563.118 699.511996,563.163 700.376,563.253 C701.240004,563.343 702.013997,563.424 702.698,563.496 C703.490004,563.604001 704.263996,563.711999 705.02,563.82 L705.02,573.918 C704.731999,573.882 704.408002,573.846 704.048,573.81 C703.759999,573.774 703.436002,573.738 703.076,573.702 C702.715998,573.666 702.338002,573.648 701.942,573.648 C701.725999,573.648 701.456002,573.657 701.132,573.675 C700.807998,573.693 700.502001,573.738 700.214,573.81 C699.925999,573.882 699.674001,574.007999 699.458,574.188 C699.241999,574.368001 699.134,574.619998 699.134,574.944 C699.134,575.232001 699.376998,575.591998 699.863,576.024 C700.349002,576.456002 700.942996,576.959997 701.645,577.536 C702.347004,578.112003 703.120996,578.777996 703.967,579.534 C704.813004,580.290004 705.586996,581.153995 706.289,582.126 C706.991004,583.098005 707.584998,584.195994 708.071,585.42 C708.557002,586.644006 708.8,588.011992 708.8,589.524 C708.8,591.108008 708.548003,592.592993 708.044,593.979 C707.539997,595.365007 706.757005,596.570995 705.695,597.597 C704.632995,598.623005 703.274008,599.432997 701.618,600.027 C699.961992,600.621003 698.000011,600.918 695.732,600.918 C694.363993,600.918 693.095006,600.855001 691.925,600.729 C690.754994,600.602999 689.720004,600.450001 688.82,600.27 C687.775995,600.089999 686.822004,599.874001 685.958,599.622 L685.958,588.822 Z M721.922,563.982 L730.562,563.982 L744.224,600 L732.884,600 L731.696,596.76 L720.788,596.76 L719.6,600 L708.26,600 L721.922,563.982 Z M728.672,588.822 L726.242,582.504 L723.812,588.822 L728.672,588.822 Z M716.306,595.68 L717.332,592.98 L735.152,592.98 L736.178,595.68 L737.69,595.68 L727.268,568.302 L725.216,568.302 L714.794,595.68 L716.306,595.68 Z M726.242,569.598 L734.666,591.684 L717.818,591.684 L726.242,569.598 Z M759.776,600.918 C757.507989,600.918 755.456009,600.630003 753.62,600.054 C751.783991,599.477997 750.218006,598.614006 748.922,597.462 C747.625994,596.309994 746.627004,594.852009 745.925,593.088 C745.222996,591.323991 744.872,589.254012 744.872,586.878 L744.872,563.982 L756.374,563.982 L756.374,586.392 C756.374,587.652006 756.634997,588.614997 757.157,589.281 C757.679003,589.947003 758.551994,590.28 759.776,590.28 C761.000006,590.28 761.872997,589.947003 762.395,589.281 C762.917003,588.614997 763.178,587.652006 763.178,586.392 L763.178,563.982 L774.734,563.982 L774.734,586.878 C774.734,589.254012 774.383004,591.323991 773.681,593.088 C772.978996,594.852009 771.971007,596.309994 770.657,597.462 C769.342993,598.614006 767.768009,599.477997 765.932,600.054 C764.095991,600.630003 762.044011,600.918 759.776,600.918 Z M759.776,594.438 C754.375973,594.438 751.676,591.792026 751.676,586.5 L751.676,568.302 L750.272,568.302 L750.272,586.5 C750.272,589.524015 751.090992,591.836992 752.729,593.439 C754.367008,595.041008 756.715985,595.842 759.776,595.842 C762.836015,595.842 765.193992,595.041008 766.85,593.439 C768.506008,591.836992 769.334,589.524015 769.334,586.5 L769.334,568.302 L767.876,568.302 L767.876,586.5 C767.876,591.792026 765.176027,594.438 759.776,594.438 Z M789.584,587.472 C790.988007,587.472 792.355993,587.328001 793.688,587.04 L798.818,595.68 L800.492,595.68 L795.092,586.608 C797.03601,585.923997 798.583994,584.871007 799.736,583.449 C800.888006,582.026993 801.464,580.182011 801.464,577.914 C801.464,576.329992 801.158003,574.944006 800.546,573.756 C799.933997,572.567994 799.097005,571.569004 798.035,570.759 C796.972995,569.948996 795.722007,569.337002 794.282,568.923 C792.841993,568.508998 791.276008,568.302 789.584,568.302 L783.752,568.302 L783.752,595.68 L785.156,595.68 L785.156,587.472 L789.584,587.472 Z M785.156,586.176 L785.156,569.598 L789.584,569.598 C792.860016,569.598 795.424991,570.317993 797.279,571.758 C799.133009,573.198007 800.06,575.249987 800.06,577.914 C800.06,580.578013 799.133009,582.620993 797.279,584.043 C795.424991,585.465007 792.860016,586.176 789.584,586.176 L785.156,586.176 Z M778.352,563.982 L790.772,563.982 C793.076012,563.982 795.20899,564.287997 797.171,564.9 C799.13301,565.512003 800.833993,566.411994 802.274,567.6 C803.714007,568.788006 804.838996,570.254991 805.649,572.001 C806.459004,573.747009 806.864,575.753989 806.864,578.022 C806.864,579.822009 806.612003,581.351994 806.108,582.612 C805.603997,583.872006 805.046003,584.915996 804.434,585.744 C803.713996,586.680005 802.904004,587.471997 802.004,588.12 L808.754,600 L795.254,600 L789.854,590.874 L789.854,600 L778.352,600 L778.352,563.982 Z M789.854,581.694 L790.448,581.694 C791.816007,581.694 792.976995,581.388003 793.931,580.776 C794.885005,580.163997 795.362,579.138007 795.362,577.698 C795.362,576.257993 794.885005,575.232003 793.931,574.62 C792.976995,574.007997 791.816007,573.702 790.448,573.702 L789.854,573.702 L789.854,581.694 Z" id="logo__dark--small"></path>
        </g>
    </g>
</svg>