<?xml version="1.0" encoding="UTF-8"?>
<svg width="482px" height="61px" viewBox="0 0 482 61" version="1.1" xmlns="http://www.w3.org/2000/svg" xmlns:xlink="http://www.w3.org/1999/xlink">
    <!-- Generator: Sketch 43.2 (39069) - http://www.bohemiancoding.com/sketch -->
    <title>logo__light--dark</title>
    <desc>Created with Sketch.</desc>
    <defs></defs>
    <g id="Page-1" stroke="none" stroke-width="1" fill="none" fill-rule="evenodd">
        <g id="Artboard-Copy-2" transform="translate(-417.000000, -267.000000)" fill="#F4FBD5">
            <path d="M427.594732,283.621073 L417,283.621073 L417,268.547268 L457.13939,268.547268 L457.13939,283.621073 L446.544658,283.621073 L446.544658,326 L427.594732,326 L427.594732,283.621073 Z M438.189463,319.109118 L438.189463,277.505415 L450.506916,277.505415 L450.506916,275.438151 L423.632474,275.438151 L423.632474,277.505415 L435.949927,277.505415 L435.949927,319.109118 L438.189463,319.109118 Z M460.154151,268.547268 L478.501125,268.547268 L478.501125,288.100147 L488.751313,288.100147 L488.751313,268.547268 L507.184423,268.547268 L507.184423,326 L488.751313,326 L488.751313,304.724401 L478.501125,304.724401 L478.501125,326 L460.154151,326 L460.154151,268.547268 Z M471.007291,319.109118 L471.007291,297.316702 L496.331283,297.316702 L496.331283,319.109118 L498.57082,319.109118 L498.57082,275.438151 L496.331283,275.438151 L496.331283,295.249437 L471.007291,295.249437 L471.007291,275.438151 L468.767754,275.438151 L468.767754,319.109118 L471.007291,319.109118 Z M513.213945,268.547268 L532.680688,268.547268 L532.680688,326 L513.213945,326 L513.213945,268.547268 Z M524.067085,319.109118 L524.067085,275.438151 L521.827548,275.438151 L521.827548,319.109118 L524.067085,319.109118 Z M538.71021,268.547268 L553.784015,268.547268 L569.633044,290.684228 L569.633044,268.547268 L587.635475,268.547268 L587.635475,326 L572.475533,326 L556.71264,303.949176 L556.71264,326 L538.71021,326 L538.71021,268.547268 Z M548.960397,319.109118 L548.960397,279.314272 L577.385287,319.109118 L579.624824,319.109118 L579.624824,275.438151 L577.385287,275.438151 L577.385287,315.232996 L548.960397,275.438151 L546.720861,275.438151 L546.720861,319.109118 L548.960397,319.109118 Z M593.664997,268.547268 L612.270379,268.547268 L612.270379,281.812217 L623.123519,268.547268 L645.605023,268.547268 L625.363056,294.818757 L646.638655,326 L624.501695,326 L612.270379,308.255978 L612.270379,326 L593.664997,326 L593.664997,268.547268 Z M604.518136,319.109118 L604.518136,307.480754 L613.476284,296.369206 L629.153041,319.109118 L631.823258,319.109118 L615.026732,294.560349 L630.445081,275.438151 L627.688728,275.438151 L604.518136,304.035312 L604.518136,275.438151 L602.2786,275.438151 L602.2786,319.109118 L604.518136,319.109118 Z M638.886412,297.316702 C638.886412,293.182152 639.675985,289.277358 641.255153,285.602202 C642.834321,281.927046 644.987701,278.725689 647.715355,275.998035 C650.44301,273.27038 653.644367,271.117001 657.319523,269.537833 C660.994678,267.958664 664.899473,267.169092 669.034023,267.169092 C673.168573,267.169092 677.073367,267.958664 680.748523,269.537833 C684.423678,271.117001 687.625035,273.27038 690.35269,275.998035 C693.080345,278.725689 695.233724,281.927046 696.812892,285.602202 C698.392061,289.277358 699.181633,293.182152 699.181633,297.316702 C699.181633,301.451252 698.392061,305.356047 696.812892,309.031202 C695.233724,312.706358 693.080345,315.907715 690.35269,318.635369 C687.625035,321.363024 684.423678,323.516403 680.748523,325.095572 C677.073367,326.67474 673.168573,327.464313 669.034023,327.464313 C664.899473,327.464313 660.994678,326.67474 657.319523,325.095572 C653.644367,323.516403 650.44301,321.363024 647.715355,318.635369 C644.987701,315.907715 642.834321,312.706358 641.255153,309.031202 C639.675985,305.356047 638.886412,301.451252 638.886412,297.316702 Z M646.983199,297.316702 C646.983199,300.36019 647.557433,303.217007 648.70592,305.887237 C649.854406,308.557467 651.433551,310.897473 653.443401,312.907324 C655.453252,314.917174 657.793257,316.496319 660.463488,317.644805 C663.133718,318.793291 665.990534,319.367526 669.034023,319.367526 C672.077511,319.367526 674.934327,318.793291 677.604558,317.644805 C680.274788,316.496319 682.614793,314.917174 684.624644,312.907324 C686.634495,310.897473 688.213639,308.557467 689.362126,305.887237 C690.510612,303.217007 691.084846,300.36019 691.084846,297.316702 C691.084846,294.273214 690.510612,291.416397 689.362126,288.746167 C688.213639,286.075937 686.634495,283.735932 684.624644,281.726081 C682.614793,279.71623 680.274788,278.137085 677.604558,276.988599 C674.934327,275.840113 672.077511,275.265879 669.034023,275.265879 C665.990534,275.265879 663.133718,275.840113 660.463488,276.988599 C657.793257,278.137085 655.453252,279.71623 653.443401,281.726081 C651.433551,283.735932 649.854406,286.075937 648.70592,288.746167 C647.557433,291.416397 646.983199,294.273214 646.983199,297.316702 Z M656.974978,297.316702 C656.974978,298.982007 657.290807,300.546796 657.922475,302.011116 C658.554142,303.475436 659.415494,304.753107 660.506556,305.844169 C661.597618,306.935231 662.875289,307.796583 664.339609,308.42825 C665.803929,309.059917 667.368718,309.375746 669.034023,309.375746 C670.699328,309.375746 672.264116,309.059917 673.728436,308.42825 C675.192756,307.796583 676.470428,306.935231 677.56149,305.844169 C678.652551,304.753107 679.513903,303.475436 680.14557,302.011116 C680.777238,300.546796 681.093067,298.982007 681.093067,297.316702 C681.093067,295.651397 680.777238,294.086608 680.14557,292.622289 C679.513903,291.157969 678.652551,289.880297 677.56149,288.789235 C676.470428,287.698173 675.192756,286.836822 673.728436,286.205154 C672.264116,285.573487 670.699328,285.257658 669.034023,285.257658 C667.368718,285.257658 665.803929,285.573487 664.339609,286.205154 C662.875289,286.836822 661.597618,287.698173 660.506556,288.789235 C659.415494,289.880297 658.554142,291.157969 657.922475,292.622289 C657.290807,294.086608 656.974978,295.651397 656.974978,297.316702 Z M669.034023,317.127989 C666.277656,317.127989 663.707957,316.611178 661.324848,315.57754 C658.941739,314.543903 656.845783,313.122673 655.036918,311.313807 C653.228052,309.504941 651.806822,307.408986 650.773184,305.025877 C649.739547,302.642768 649.222736,300.073069 649.222736,297.316702 C649.222736,294.560335 649.739547,291.990636 650.773184,289.607527 C651.806822,287.224419 653.228052,285.128463 655.036918,283.319597 C656.845783,281.510732 658.941739,280.089501 661.324848,279.055864 C663.707957,278.022226 666.277656,277.505415 669.034023,277.505415 C671.790389,277.505415 674.360089,278.022226 676.743197,279.055864 C679.126306,280.089501 681.222262,281.510732 683.031127,283.319597 C684.839993,285.128463 686.261223,287.224419 687.294861,289.607527 C688.328498,291.990636 688.845309,294.560335 688.845309,297.316702 C688.845309,300.073069 688.328498,302.642768 687.294861,305.025877 C686.261223,307.408986 684.839993,309.504941 683.031127,311.313807 C681.222262,313.122673 679.126306,314.543903 676.743197,315.57754 C674.360089,316.611178 671.790389,317.127989 669.034023,317.127989 Z M709.604093,318.506165 C710.408033,318.678438 711.269385,318.821997 712.188173,318.936846 C712.992114,319.051694 713.83911,319.152185 714.729186,319.238322 C715.619263,319.324458 716.523682,319.367526 717.442471,319.367526 C719.050352,319.367526 720.615141,319.1809 722.136885,318.807642 C723.658629,318.434384 725.022436,317.817081 726.228346,316.955717 C727.434257,316.094352 728.396099,314.988951 729.113903,313.63948 C729.831707,312.290009 730.190604,310.639084 730.190604,308.686658 C730.190604,307.021353 729.774284,305.442208 728.941631,303.949176 C728.108979,302.456144 727.046645,301.020558 725.754598,299.642375 C724.462551,298.264192 723.084388,296.943452 721.620069,295.680118 C720.155749,294.416783 718.777586,293.139111 717.485539,291.847064 C716.193492,290.555017 715.131159,289.26299 714.298506,287.970943 C713.465854,286.678896 713.049534,285.343801 713.049534,283.965618 C713.049534,281.898343 713.709903,280.304842 715.030662,279.185068 C716.351421,278.065294 718.476089,277.505415 721.404729,277.505415 C721.864123,277.505415 722.337866,277.519771 722.825973,277.548483 C723.31408,277.577196 723.787823,277.620263 724.247218,277.677687 C724.706612,277.735112 725.166,277.763823 725.625394,277.763823 L725.625394,275.524287 C725.223424,275.524287 724.792748,275.495575 724.333354,275.438151 C723.931383,275.380726 723.486352,275.337659 722.998245,275.308947 C722.510139,275.280234 722.007683,275.265879 721.490865,275.265879 C718.389952,275.265879 715.834609,275.969316 713.824758,277.376211 C711.814907,278.783107 710.809997,280.979554 710.809997,283.965618 C710.809997,285.573498 711.226317,287.080864 712.058969,288.487759 C712.891622,289.894655 713.953956,291.272817 715.246002,292.622289 C716.538049,293.97176 717.916212,295.278143 719.380532,296.541478 C720.844852,297.804813 722.223014,299.082484 723.515061,300.374531 C724.807108,301.666578 725.869442,303.001673 726.702094,304.379857 C727.534747,305.75804 727.951067,307.193626 727.951067,308.686658 C727.951067,311.443025 727.017936,313.538981 725.151646,314.974588 C723.285356,316.410196 720.715657,317.127989 717.442471,317.127989 C715.490045,317.127989 713.709918,316.98443 712.102037,316.697309 C711.240673,316.58246 710.408033,316.438902 709.604093,316.266629 L709.604093,318.506165 Z M702.368666,308.169842 C703.632001,308.571812 704.95274,308.887641 706.330923,309.117338 C707.47941,309.40446 708.785793,309.634154 710.250113,309.806426 C711.714433,309.978699 713.193086,310.064835 714.686118,310.064835 C717.327636,310.064835 718.648376,309.088636 718.648376,307.13621 C718.648376,306.389694 718.246412,305.628833 717.442471,304.853605 C716.638531,304.078377 715.619265,303.217025 714.384642,302.269524 C713.15002,301.322023 711.82928,300.274045 710.422385,299.125559 C709.015489,297.977073 707.69475,296.656333 706.460127,295.163301 C705.225505,293.670269 704.206239,291.990634 703.402298,290.124344 C702.598358,288.258054 702.196394,286.11903 702.196394,283.707209 C702.196394,281.008267 702.684493,278.625194 703.660707,276.557919 C704.63692,274.490644 705.986371,272.767941 707.7091,271.389757 C709.431829,270.011574 711.456006,268.963596 713.78169,268.245792 C716.107374,267.527988 718.590938,267.169092 721.232457,267.169092 C722.61064,267.169092 723.988803,267.240871 725.366986,267.384432 C726.745169,267.527993 727.979773,267.657195 729.070835,267.772044 C730.33417,267.944317 731.568774,268.116587 732.774685,268.28886 L732.774685,284.396298 C732.31529,284.338873 731.798479,284.28145 731.224236,284.224026 C730.764842,284.166601 730.248031,284.109178 729.673787,284.051754 C729.099544,283.994329 728.496598,283.965618 727.864931,283.965618 C727.520385,283.965618 727.089709,283.979973 726.57289,284.008686 C726.056072,284.037398 725.567972,284.109177 725.108578,284.224026 C724.649183,284.338874 724.247219,284.539856 723.902673,284.826978 C723.558128,285.114099 723.385857,285.516064 723.385857,286.032882 C723.385857,286.492277 723.773466,287.066511 724.548694,287.755603 C725.323922,288.444695 726.271409,289.248623 727.391183,290.167412 C728.510957,291.086201 729.745561,292.148534 731.095032,293.354445 C732.444503,294.560355 733.679107,295.938518 734.798881,297.488974 C735.918655,299.03943 736.866142,300.790846 737.64137,302.743272 C738.416598,304.695698 738.804207,306.877789 738.804207,309.28961 C738.804207,311.81628 738.402242,314.184997 737.598302,316.395833 C736.794362,318.606669 735.545402,320.530354 733.851385,322.166947 C732.157368,323.803539 729.989633,325.095567 727.348115,326.043068 C724.706597,326.990569 721.577019,327.464313 717.959287,327.464313 C715.777164,327.464313 713.752987,327.363821 711.886697,327.162836 C710.020407,326.961851 708.369483,326.717802 706.933876,326.43068 C705.268571,326.143559 703.746849,325.799018 702.368666,325.397048 L702.368666,308.169842 Z M759.735262,268.547268 L773.517027,268.547268 L795.309442,326 L777.220876,326 L775.325883,320.831838 L757.926405,320.831838 L756.031412,326 L737.942846,326 L759.735262,268.547268 Z M770.502265,308.169842 L766.626144,298.091926 L762.750023,308.169842 L770.502265,308.169842 Z M750.777115,319.109118 L752.413699,314.802316 L780.838589,314.802316 L782.475174,319.109118 L784.886982,319.109118 L768.262729,275.438151 L764.98956,275.438151 L748.365306,319.109118 L750.777115,319.109118 Z M766.626144,277.505415 L780.063365,312.735051 L753.188924,312.735051 L766.626144,277.505415 Z M820.116619,327.464313 C816.498887,327.464313 813.225751,327.004925 810.297111,326.086136 C807.368471,325.167347 804.870552,323.789184 802.803277,321.951607 C800.736002,320.114029 799.142501,317.788379 798.022727,314.974588 C796.902953,312.160797 796.343074,308.858949 796.343074,305.068945 L796.343074,268.547268 L814.690049,268.547268 L814.690049,304.293721 C814.690049,306.303571 815.106369,307.839648 815.939021,308.901998 C816.771674,309.964348 818.164192,310.495515 820.116619,310.495515 C822.069045,310.495515 823.461564,309.964348 824.294216,308.901998 C825.126868,307.839648 825.543188,306.303571 825.543188,304.293721 L825.543188,268.547268 L843.976299,268.547268 L843.976299,305.068945 C843.976299,308.858949 843.41642,312.160797 842.296646,314.974588 C841.176872,317.788379 839.569016,320.114029 837.473028,321.951607 C835.377041,323.789184 832.864766,325.167347 829.936126,326.086136 C827.007486,327.004925 823.73435,327.464313 820.116619,327.464313 Z M820.116619,317.127989 C811.502972,317.127989 807.196214,312.907366 807.196214,304.465993 L807.196214,275.438151 L804.956677,275.438151 L804.956677,304.465993 C804.956677,309.289634 806.263061,312.979091 808.875867,315.534472 C811.488673,318.089854 815.235552,319.367526 820.116619,319.367526 C824.997685,319.367526 828.75892,318.089854 831.400438,315.534472 C834.041957,312.979091 835.362696,309.289634 835.362696,304.465993 L835.362696,275.438151 L833.037023,275.438151 L833.037023,304.465993 C833.037023,312.907366 828.730265,317.127989 820.116619,317.127989 Z M867.663707,306.016441 C869.903255,306.016441 872.085346,305.786747 874.210045,305.327353 L882.392968,319.109118 L885.063185,319.109118 L876.449582,304.638265 C879.550494,303.547203 882.019703,301.867567 883.85728,299.599307 C885.694858,297.331047 886.613633,294.388095 886.613633,290.770364 C886.613633,288.243694 886.125534,286.032892 885.149321,284.13789 C884.173108,282.242887 882.838013,280.649387 881.143995,279.35734 C879.449978,278.065293 877.454514,277.089094 875.157541,276.428715 C872.860569,275.768335 870.362649,275.438151 867.663707,275.438151 L858.361016,275.438151 L858.361016,319.109118 L860.600552,319.109118 L860.600552,306.016441 L867.663707,306.016441 Z M860.600552,303.949176 L860.600552,277.505415 L867.663707,277.505415 C872.889319,277.505415 876.980739,278.653884 879.938091,280.950857 C882.895443,283.247829 884.374097,286.520965 884.374097,290.770364 C884.374097,295.019763 882.895443,298.278543 879.938091,300.546803 C876.980739,302.815063 872.889319,303.949176 867.663707,303.949176 L860.600552,303.949176 Z M849.747413,268.547268 L869.5587,268.547268 C873.233855,268.547268 876.636194,269.035368 879.765819,270.011581 C882.895444,270.987794 885.608702,272.42338 887.905674,274.318382 C890.202646,276.213384 891.997129,278.55339 893.289176,281.338469 C894.581223,284.123548 895.227236,287.324905 895.227236,290.942636 C895.227236,293.813851 894.825272,296.254348 894.021332,298.264198 C893.217392,300.274049 892.327328,301.939329 891.351115,303.260088 C890.202629,304.75312 888.910601,306.016436 887.474994,307.050073 L898.241997,326 L876.70799,326 L868.094387,311.443011 L868.094387,326 L849.747413,326 L849.747413,268.547268 Z M868.094387,296.799886 L869.041883,296.799886 C871.224007,296.799886 873.075913,296.311787 874.597657,295.335573 C876.119401,294.35936 876.880262,292.722792 876.880262,290.42582 C876.880262,288.128848 876.119401,286.492279 874.597657,285.516066 C873.075913,284.539853 871.224007,284.051754 869.041883,284.051754 L868.094387,284.051754 L868.094387,296.799886 Z" id="logo__light--dark"></path>
        </g>
    </g>
</svg>